<svg xmlns="http://www.w3.org/2000/svg" version="1.1" xmlns:xlink="http://www.w3.org/1999/xlink" xmlns:svgjs="http://svgjs.com/svgjs" height="107.95503845214843" width="327.23998107910154"><defs id="SvgjsDefs1625"></defs><g id="SvgjsG1626" rel="mainfill" name="main_text" xmlns:name="main_text" transform="translate(120.03999080657957,-175.32748107910157)" fill="#ffffff"><path d="M7.37 217.19L20.16 217.19L20.16 213.12L2.96 213.12L2.96 240L12.83 240C17.97 240 22.01 237.23 22.01 231.78C22.01 226.75 18.55 223.75 13.13 223.75L7.37 223.75ZM7.37 235.97L7.37 227.79L12.98 227.79C15.75 227.79 17.55 229.17 17.55 231.90C17.55 234.51 15.78 235.97 12.94 235.97ZM26.12 245.80L30.46 245.80L30.46 236.93C31.72 238.69 33.49 240.38 36.41 240.38C40.56 240.38 44.40 236.93 44.40 230.09L44.40 229.55C44.40 222.72 40.56 219.26 36.41 219.26C33.53 219.26 31.72 220.95 30.46 222.91L30.46 219.65L26.12 219.65ZM35.26 236.54C32.64 236.54 30.42 234.05 30.42 230.05L30.42 229.63C30.42 225.64 32.64 223.10 35.26 223.10C37.87 223.10 40.06 225.60 40.06 229.63L40.06 230.05C40.06 234.12 37.91 236.54 35.26 236.54ZM65.06 219.65L60.87 219.65L52.81 232.93L52.81 219.65L48.54 219.65L48.54 240L52.69 240L60.83 226.63L60.83 240L65.06 240ZM70.05 240L74.39 240L74.39 223.37L82.65 223.37L82.65 219.65L70.05 219.65ZM90.94 240.38C93.59 240.38 95.40 239.19 96.63 237.50L96.63 240L100.89 240L100.89 227.36C100.89 222.26 98.16 219.41 92.83 219.41C90.06 219.41 88.14 219.95 86.22 220.84L87.06 224.41C88.72 223.72 90.21 223.26 92.17 223.26C95.09 223.26 96.63 224.71 96.63 227.44L96.63 228.25C95.28 227.75 93.90 227.44 91.94 227.44C87.64 227.44 84.65 229.59 84.65 233.97L84.65 234.20C84.65 238.12 87.56 240.38 90.94 240.38ZM92.25 237.12C90.33 237.12 88.91 236.01 88.91 233.97L88.91 233.74C88.91 231.63 90.37 230.40 92.86 230.40C94.36 230.40 95.71 230.71 96.67 231.13L96.67 233.20C96.67 235.51 94.78 237.12 92.25 237.12ZM117.25 223.37L117.25 236.27L109.88 236.27C111.34 233.01 111.68 228.82 111.68 223.37ZM119.86 240L119.86 244.46L123.59 244.46L124.05 236.27L121.55 236.27L121.55 219.65L107.57 219.65L107.57 222.37C107.57 228.21 107.00 232.97 105.50 236.27L103.58 236.27L103.58 244.46L107.30 244.46L107.61 240ZM132.46 240.38C135.11 240.38 136.91 239.19 138.14 237.50L138.14 240L142.41 240L142.41 227.36C142.41 222.26 139.68 219.41 134.34 219.41C131.58 219.41 129.66 219.95 127.74 220.84L128.58 224.41C130.23 223.72 131.73 223.26 133.69 223.26C136.61 223.26 138.14 224.71 138.14 227.44L138.14 228.25C136.80 227.75 135.42 227.44 133.46 227.44C129.16 227.44 126.16 229.59 126.16 233.97L126.16 234.20C126.16 238.12 129.08 240.38 132.46 240.38ZM133.77 237.12C131.85 237.12 130.42 236.01 130.42 233.97L130.42 233.74C130.42 231.63 131.88 230.40 134.38 230.40C135.88 230.40 137.22 230.71 138.18 231.13L138.18 233.20C138.18 235.51 136.30 237.12 133.77 237.12ZM172.94 240L172.94 235.97L162.03 235.97L167.22 229.78C171.02 226.06 172.75 223.91 172.75 220.30L172.75 220.18C172.75 215.73 169.60 212.81 164.80 212.81C160.96 212.81 158.73 214.35 156.58 217.03L158.92 220.03C160.69 217.92 162.22 216.84 164.37 216.84C166.56 216.84 168.22 218.30 168.22 220.64C168.22 222.79 167.10 224.48 164.14 227.60L156.16 236.47L156.16 240ZM194.71 228.48L194.71 224.48L187.92 224.48L187.92 217.49L183.77 217.49L183.77 224.48L176.97 224.48L176.97 228.48L183.77 228.48L183.77 235.47L187.92 235.47L187.92 228.48ZM207.20 240L207.20 212.96L204.05 212.96L197.86 215.00L198.56 218.84L202.78 217.57L202.78 240Z" fill="#ffffff" style="fill: rgb(255, 255, 255);"></path></g><g id="SvgjsG1627" rel="mainfill" name="symbol" xmlns:name="symbol_mainfill" transform="translate(-6.0000057220459055,-6) scale(1.2)" fill="#ffffff"><path d="M81.8,18.2c-17.6-17.6-46-17.6-63.6,0s-17.6,46.1,0,63.6s46,17.6,63.6,0S99.4,35.8,81.8,18.2z M71.3,64.2L50,42.9L28.7,64.2  l-7.1-7.1L50,28.7l28.4,28.4L71.3,64.2z" fill="#ffffff" style="fill: rgb(255, 255, 255);"></path></g></svg>