<svg xmlns="http://www.w3.org/2000/svg" version="1.1" xmlns:xlink="http://www.w3.org/1999/xlink" xmlns:svgjs="http://svgjs.com/svgjs" height="90.89908103942872" width="256.4100036621094"><defs id="SvgjsDefs2998"></defs><g id="SvgjsG2999" rel="mainfill" name="main_text" xmlns:name="main_text" transform="translate(-2.759999990463257,-158.96091957092284)" fill="#588F27"><path d="M29.59 232.90Q29.59 234.52 29.07 235.96Q28.56 237.40 27.26 238.46Q25.96 239.53 23.79 240.16Q21.62 240.79 18.30 240.79L17.20 240.79Q13.61 240.79 9.88 240.59Q6.15 240.39 2.76 240L2.76 213.57L28.05 213.57L28.05 219.88L9.86 219.88L9.86 223.83Q11.79 223.51 13.83 223.47Q15.86 223.43 17.99 223.43L19.09 223.43Q22.17 223.43 24.20 224.06Q26.23 224.69 27.42 225.76Q28.60 226.82 29.09 228.26Q29.59 229.70 29.59 231.32L29.59 232.90M16.88 229.74Q15.03 229.74 13.37 229.80Q11.72 229.86 9.86 230.10L9.86 234.12Q11.83 234.32 13.87 234.40Q15.90 234.48 17.16 234.48Q19.45 234.48 20.69 234.30Q21.93 234.12 22.50 233.81Q23.08 233.49 23.18 233.06Q23.27 232.62 23.27 232.11Q23.27 231.60 23.18 231.16Q23.08 230.73 22.49 230.41Q21.89 230.10 20.59 229.92Q19.29 229.74 16.88 229.74ZM35.50 220.28L37.63 221.54Q39.53 220.51 41.66 220.00Q43.79 219.49 46.39 219.49Q49.70 219.49 51.87 220.26Q54.04 221.03 55.35 222.37Q56.65 223.71 57.16 225.50Q57.67 227.30 57.67 229.35L57.67 230.93Q57.67 232.98 57.16 234.77Q56.65 236.57 55.35 237.91Q54.04 239.25 51.87 240.02Q49.70 240.79 46.39 240.79Q44.62 240.79 43.12 240.55Q41.62 240.32 40.24 239.88L40.24 249.86L33.93 249.86L33.93 220.28L35.50 220.28M46.04 225.21Q44.38 225.21 42.96 225.42Q41.54 225.64 40.24 226.07L40.24 234.24Q42.84 235.07 46.04 235.07Q48.05 235.07 49.11 234.65Q50.18 234.24 50.69 233.57Q51.20 232.90 51.28 231.99Q51.36 231.08 51.36 230.14Q51.36 229.19 51.28 228.28Q51.20 227.38 50.69 226.71Q50.18 226.04 49.11 225.62Q48.05 225.21 46.04 225.21ZM86.31 220.28L86.31 240L80.00 240L80.00 227.85L68.92 240L62.60 240L62.60 220.28L68.92 220.28L68.92 232.43L80.00 220.28L86.31 220.28ZM108.88 220.28L108.88 225.80L97.75 225.80L97.75 240L91.44 240L91.44 220.28L108.88 220.28ZM135.98 240L134.40 240L132.27 238.78Q130.26 239.80 128.09 240.30Q125.92 240.79 123.20 240.79Q120.00 240.79 117.89 240.26Q115.78 239.72 114.52 238.80Q113.25 237.87 112.74 236.67Q112.23 235.46 112.23 234.16L112.23 233.77Q112.23 232.54 112.76 231.44Q113.29 230.34 114.58 229.51Q115.86 228.68 117.93 228.21Q120.00 227.73 123.08 227.73Q126.94 227.73 129.66 228.48Q129.63 227.69 129.45 227.08Q129.27 226.47 128.68 226.06Q128.09 225.64 126.92 225.42Q125.76 225.21 123.83 225.21Q122.76 225.21 121.54 225.29Q120.32 225.36 119.07 225.50Q117.83 225.64 116.63 225.88Q115.42 226.11 114.40 226.39L114.40 220.47Q115.42 220.24 116.63 220.06Q117.83 219.88 119.11 219.74Q120.39 219.61 121.64 219.55Q122.88 219.49 124.02 219.49Q127.34 219.49 129.61 220.06Q131.87 220.63 133.29 221.72Q134.71 222.80 135.35 224.42Q135.98 226.04 135.98 228.17L135.98 240M123.87 235.86Q126.98 235.86 129.66 235.03L129.66 233.18Q128.32 232.82 126.82 232.64Q125.33 232.47 123.47 232.47Q121.70 232.47 120.71 232.62Q119.72 232.78 119.25 233.04Q118.78 233.29 118.66 233.61Q118.54 233.93 118.54 234.20Q118.54 234.56 118.66 234.85Q118.78 235.15 119.31 235.38Q119.84 235.62 120.91 235.74Q121.97 235.86 123.87 235.86ZM141.18 234.48Q141.89 233.96 142.15 232.88Q142.41 231.79 142.56 230.22L143.27 220.28L163.23 220.28L163.23 234.48L166.35 234.48L166.35 244.73L162.41 247.10L160.83 247.10L160.83 240L144.26 240L144.26 244.73L140.32 247.10L138.74 247.10L138.74 234.48L141.18 234.48M148.99 225.96L148.72 229.90Q148.64 231.28 148.44 232.43Q148.24 233.57 147.93 234.48L156.92 234.48L156.92 225.96L148.99 225.96ZM192.86 240L191.28 240L189.15 238.78Q187.14 239.80 184.97 240.30Q182.80 240.79 180.08 240.79Q176.88 240.79 174.77 240.26Q172.66 239.72 171.40 238.80Q170.14 237.87 169.63 236.67Q169.11 235.46 169.11 234.16L169.11 233.77Q169.11 232.54 169.64 231.44Q170.18 230.34 171.46 229.51Q172.74 228.68 174.81 228.21Q176.88 227.73 179.96 227.73Q183.83 227.73 186.55 228.48Q186.51 227.69 186.33 227.08Q186.15 226.47 185.56 226.06Q184.97 225.64 183.81 225.42Q182.64 225.21 180.71 225.21Q179.64 225.21 178.42 225.29Q177.20 225.36 175.96 225.50Q174.71 225.64 173.51 225.88Q172.31 226.11 171.28 226.39L171.28 220.47Q172.31 220.24 173.51 220.06Q174.71 219.88 176.00 219.74Q177.28 219.61 178.52 219.55Q179.76 219.49 180.91 219.49Q184.22 219.49 186.49 220.06Q188.76 220.63 190.18 221.72Q191.60 222.80 192.23 224.42Q192.86 226.04 192.86 228.17L192.86 240M180.75 235.86Q183.87 235.86 186.55 235.03L186.55 233.18Q185.21 232.82 183.71 232.64Q182.21 232.47 180.36 232.47Q178.58 232.47 177.59 232.62Q176.61 232.78 176.13 233.04Q175.66 233.29 175.54 233.61Q175.42 233.93 175.42 234.20Q175.42 234.56 175.54 234.85Q175.66 235.15 176.19 235.38Q176.73 235.62 177.79 235.74Q178.86 235.86 180.75 235.86ZM225.09 233.10Q224.18 234.79 223.33 236.21Q222.49 237.63 221.36 238.64Q220.24 239.64 218.74 240.22Q217.24 240.79 215.11 240.79Q214.24 240.79 213.21 240.69Q212.19 240.59 211.40 240.39L211.40 234.00Q212.19 234.20 213.18 234.28Q214.16 234.36 214.83 234.36Q216.53 234.36 217.22 233.89Q217.91 233.41 218.34 232.39L206.47 215.15L206.47 213.57L213.57 213.57L221.74 226.31L228.92 213.57L235.62 213.57L235.62 215.15L225.09 233.10ZM244.81 230.14L237.79 221.85L237.79 220.28L243.79 220.28L248.48 225.84L253.21 220.28L259.17 220.28L259.17 221.85L252.15 230.14L259.17 238.42L259.17 240L253.21 240L248.48 234.44L243.79 240L237.79 240L237.79 238.42L244.81 230.14Z" fill="#588F27" style="fill: rgb(88, 143, 39);"></path></g><g id="SvgjsG3000" rel="mainfill" name="symbol" xmlns:name="symbol_mainfill" transform="translate(85.00500282347203,-23.39639854431152) scale(0.9)" fill="#588F27"><path d="M2 70c-0.56 0-1.112-0.236-1.508-0.688-0.724-0.832-0.636-2.092 0.196-2.824l46-40c0.752-0.656 1.872-0.656 2.624 0l10.688 9.292v-7.78c0-1.104 0.9-2 2-2h12c1.1 0 2 0.9 2 2v21.7l19.312 16.792c0.832 0.728 0.92 1.992 0.196 2.828s-1.992 0.916-2.824 0.196l-20-17.392c-0.432-0.384-0.688-0.928-0.688-1.508v-20.616h-8v10.168c0 0.784-0.456 1.492-1.168 1.82-0.708 0.324-1.548 0.204-2.144-0.312l-12.688-11.028-44.688 38.86c-0.376 0.332-0.84 0.492-1.308 0.492z" fill="#588F27" style="fill: rgb(88, 143, 39);"></path></g></svg>