<svg xmlns="http://www.w3.org/2000/svg" version="1.1" xmlns:xlink="http://www.w3.org/1999/xlink" xmlns:svgjs="http://svgjs.com/svgjs" height="60.199999999999996" width="274.8100074768066"><defs id="SvgjsDefs2970"></defs><g id="SvgjsG2971" rel="mainfill" name="main_text" xmlns:name="main_text" transform="translate(64.81000318527221,-199.94000091552735)" fill="#284907"><path d="M8.19 217.90L17.18 217.90C18.48 217.90 18.78 216.76 18.78 215.62C18.78 214.47 18.44 213.33 17.18 213.33L6.21 213.33C4.31 213.33 2.48 213.83 2.48 216.68L2.48 236.65C2.48 239.50 4.31 240 6.21 240L12.69 240C17.30 240 20.50 236.80 20.50 231.96C20.50 227.05 17.33 223.92 12.69 223.92L7.54 223.92L7.54 218.55C7.54 218.06 7.73 217.90 8.19 217.90ZM12.15 228.49C14.25 228.49 15.24 229.87 15.24 231.96C15.24 234.09 14.29 235.43 12.15 235.43L8.19 235.43C7.73 235.43 7.54 235.28 7.54 234.78L7.54 228.49ZM28.73 221.48C28.50 220.11 27.35 219.81 26.25 219.81C24.95 219.81 23.93 220.30 23.93 221.75L23.93 245.26C23.93 246.71 25.22 247.09 26.48 247.09C27.77 247.09 29.03 246.71 29.03 245.26L29.03 238.97C30.10 240 31.70 240.46 33.30 240.46C39.17 240.46 41.68 236.19 41.68 230.09C41.68 224.00 39.43 219.77 33.30 219.77C31.55 219.77 29.72 220.46 28.73 221.48ZM29.03 230.78L29.03 229.07C29.03 226.67 30.25 223.73 32.80 223.73C35.93 223.73 36.31 227.24 36.31 230.09C36.31 232.95 35.93 236.49 32.80 236.49C30.06 236.49 29.03 233.22 29.03 230.78ZM51.85 229.56C51.40 230.21 50.98 230.93 50.60 231.69L50.60 221.71C50.60 220.26 49.34 219.88 48.04 219.88C46.79 219.88 45.49 220.26 45.49 221.71L45.49 238.55C45.49 240 46.67 240.38 47.93 240.38C48.69 240.38 49.64 240.23 50.10 239.54L55.89 230.70C56.31 230.02 56.73 229.29 57.11 228.53L57.11 238.55C57.11 240 58.37 240.38 59.66 240.38C60.92 240.38 62.22 240 62.22 238.55L62.22 221.71C62.22 220.26 61.03 219.88 59.78 219.88C59.01 219.88 58.06 220.00 57.61 220.68ZM67.17 223.96L67.17 238.55C67.17 239.96 68.46 240.38 69.72 240.38C71.02 240.38 72.27 240 72.27 238.55L72.27 225.14C72.27 224.68 72.43 224.38 72.96 224.38L77.68 224.38C79.09 224.38 79.47 223.35 79.47 222.32C79.47 221.29 79.13 220.26 77.68 220.26L70.56 220.26C67.93 220.26 67.17 221.90 67.17 223.96ZM93.27 238.44C93.84 239.66 94.48 240.11 95.82 240.11C97.04 240.08 97.84 239.70 97.72 238.36C97.65 237.45 97.57 236.65 97.57 235.81L97.57 227.01C97.57 221.71 93.88 219.73 89.53 219.73C87.06 219.73 84.88 220.19 82.67 221.52C81.53 222.21 81.57 223.66 82.29 224.57C83.02 225.41 83.82 225.37 84.73 224.99C86.52 224.23 87.36 223.81 89.46 223.85C91.02 223.85 92.50 224.61 92.47 227.24C87.47 226.93 81.00 227.62 81.00 234.17C81.00 238.10 84.08 240.42 87.55 240.42C90.37 240.42 91.97 239.54 93.27 238.44ZM92.47 230.97C92.81 233.79 91.47 236.30 88.81 236.30C87.21 236.30 86.18 235.47 86.14 234.17C86.03 230.82 90.33 230.82 92.47 230.97ZM100.05 238.86L100.05 242.71C100.05 244.15 100.92 244.53 102.22 244.53C103.48 244.53 104.43 244.15 104.43 242.71L104.43 240.76C104.43 240.30 104.58 240 105.11 240L114.79 240C115.32 240 115.48 240.30 115.48 240.76L115.48 242.71C115.48 244.15 116.43 244.53 117.69 244.53C118.98 244.53 119.86 244.15 119.86 242.71L119.86 238.86C119.86 237.22 119.29 236.27 117.65 236.00L117.65 223.96C117.65 221.90 116.89 220.26 114.26 220.26L106.94 220.26C104.31 220.26 103.48 221.90 103.36 223.96L102.90 231.35C102.79 233.10 102.94 235.16 101.34 236.34C100.43 236.99 100.05 237.75 100.05 238.86ZM112.54 235.89L106.60 235.89C107.17 234.86 107.40 232.88 107.48 231.43L107.86 225.14C107.86 224.68 108.05 224.38 108.58 224.38L111.86 224.38C112.39 224.38 112.54 224.68 112.54 225.14ZM133.65 238.44C134.22 239.66 134.87 240.11 136.20 240.11C137.42 240.08 138.22 239.70 138.11 238.36C138.03 237.45 137.96 236.65 137.96 235.81L137.96 227.01C137.96 221.71 134.26 219.73 129.92 219.73C127.44 219.73 125.27 220.19 123.06 221.52C121.92 222.21 121.95 223.66 122.68 224.57C123.40 225.41 124.20 225.37 125.12 224.99C126.91 224.23 127.74 223.81 129.84 223.85C131.40 223.85 132.89 224.61 132.85 227.24C127.86 226.93 121.38 227.62 121.38 234.17C121.38 238.10 124.47 240.42 127.94 240.42C130.75 240.42 132.35 239.54 133.65 238.44ZM132.85 230.97C133.19 233.79 131.86 236.30 129.19 236.30C127.59 236.30 126.56 235.47 126.53 234.17C126.41 230.82 130.72 230.82 132.85 230.97ZM156.89 240L171.03 240C172.28 240 172.63 238.86 172.63 237.71C172.63 236.57 172.28 235.43 171.03 235.43L160.93 235.43C160.62 235.43 160.62 235.16 160.78 235.01C162.61 233.14 165.01 231.54 167.14 229.79C170.07 227.39 172.51 224.87 172.51 220.87C172.51 215.46 168.28 212.99 163.18 212.99C158.87 212.99 154.95 215.50 154.64 220.26C154.64 221.60 155.29 222.13 156.55 222.25C157.77 222.40 158.99 221.98 159.29 220.65C159.79 218.51 161.27 217.45 163.18 217.45C165.84 217.45 167.41 218.89 167.41 221.45C167.41 223.73 165.16 225.83 162.99 227.50C160.32 229.56 157.84 231.47 155.60 234.06C155.06 234.70 154.34 235.58 154.34 237.10C154.34 239.35 154.91 240 156.89 240ZM186.68 218.82C186.68 217.64 185.62 217.33 184.55 217.33C183.52 217.33 182.45 217.64 182.45 218.82L182.45 224.68L176.55 224.68C175.41 224.68 175.10 225.75 175.10 226.82C175.10 227.85 175.41 228.91 176.55 228.91L182.45 228.91L182.45 234.82C182.45 235.96 183.52 236.30 184.55 236.30C185.62 236.30 186.68 236.00 186.68 234.82L186.68 228.91L192.55 228.91C193.73 228.91 194.04 227.85 194.04 226.82C194.04 225.75 193.73 224.68 192.55 224.68L186.68 224.68ZM205.62 214.97C205.62 213.56 204.44 213.18 203.26 213.18C202.57 213.18 202.00 213.33 201.43 213.67L196.67 216.53C195.75 217.10 195.56 218.06 195.94 219.05C196.28 219.88 197.20 220.38 197.96 220.04L199.68 219.27C200.09 219.12 200.51 218.86 200.89 218.55L200.89 235.43L198.27 235.43C197.01 235.43 196.67 236.57 196.67 237.71C196.67 238.86 197.01 240 198.27 240L208.40 240C209.66 240 210.00 238.86 210.00 237.71C210.00 236.57 209.66 235.43 208.40 235.43L205.62 235.43Z" fill="#284907" style="fill: rgb(40, 73, 7);"></path></g><g id="SvgjsG2972" rel="mainfill" name="symbol" xmlns:name="symbol_mainfill" transform="translate(-8.819998931884776,-4.900001335144043) scale(0.7)" fill="#284907"><path d="M21.6,77.4C37.5,68.2,53.2,59.1,69.1,50c-15.8-9.2-31.6-18.2-47.4-27.4C21.6,40.9,21.6,59,21.6,77.4z M25.1,28.6  c12.3,7.1,24.6,14.2,37,21.3c-12.4,7.1-24.6,14.2-37,21.3C25.1,57,25.1,42.9,25.1,28.6z" fill="#284907" style="fill: rgb(40, 73, 7);"></path><path d="M30.6,38c0,8,0,15.9,0,23.9c6.9-4,13.7-7.9,20.7-12C44.3,45.9,37.5,42,30.6,38z" fill="#284907" style="fill: rgb(40, 73, 7);"></path><path d="M87.3,50c-0.2-0.1-0.4-0.2-0.6-0.3L61.1,34.9c-13.5-7.8-27-15.6-40.5-23.4c-1.9-1.1-3.8-2.2-5.7-3.2  c-0.8-0.4-1.6-0.9-2.3-1.3v86c24.3-14,48.6-28.1,72.9-42.1c0.5-0.3,1-0.5,1.4-0.7C87.1,50.1,87.2,50.1,87.3,50L87.3,50z M80,50.1  c-17.4,10-34.6,20-51.9,30l-11.7,6.7L16,87.1v-0.4V13.2v-0.4l0.3,0.2c15.5,9,31,17.9,46.5,26.8L80,49.8l0.3,0.2L80,50.1z" fill="#284907" style="fill: rgb(40, 73, 7);"></path></g></svg>