<svg xmlns="http://www.w3.org/2000/svg" version="1.1" xmlns:xlink="http://www.w3.org/1999/xlink" xmlns:svgjs="http://svgjs.com/svgjs" height="115.44999389648437" width="257.8699951171875"><defs id="SvgjsDefs2008"></defs><g id="SvgjsG2009" rel="mainfill" name="main_text" xmlns:name="main_text" transform="translate(-1.4500000476837158,-129.06000061035155)" fill="#BDD684"><path d="M1.45 240.57L1.86 214.61L2.49 214.80L3.07 214.35L4.27 216.89L5.72 214.28L6.48 214.41L6.38 224.18L13.84 223.95L14.03 214.19L14.79 213.98L15.76 216.40L17.15 214.04L18.10 214.80L18.70 214.54L18.14 240.40L17.38 240.92L16.62 237.75L15.66 240.53L14.53 239.81L13.97 240.06L14.00 230.17L6.16 230.56L5.82 239.94L4.93 239.71L4.07 240.73L3.01 238.42L1.89 240.70L1.45 240.57ZM20.29 239.81L24.55 219.37L25.88 219.78L27.09 218.71L28.92 220.96L29.95 218.94L31.10 219.63L32.17 219.02L36.03 239.94L35.30 239.43L34.09 240.13L33.15 238.93L32.26 239.84L31.04 235.36L24.88 235.86L23.70 240.37L23.36 240.50L22.31 239.18L20.98 240.23L20.29 239.81M25.70 232.10L30.44 231.66L28.79 224.24L27.40 224.34L25.70 232.10ZM37.15 230.20Q37.15 229.25 37.43 227.66Q37.71 226.07 38.33 224.43Q38.94 222.79 39.95 221.44Q40.96 220.10 42.41 219.63Q44.03 219.13 45.50 218.95Q45.99 218.89 46.52 218.91Q47.55 218.91 48.67 219.15Q48.73 219.25 48.77 219.39Q48.80 219.54 48.86 219.63L46.59 220.44L48.17 221.33L47.47 221.93L47.75 222.75Q47.31 222.79 46.78 222.85Q46.25 222.91 45.72 223.02Q45.19 223.12 44.71 223.25Q44.23 223.38 43.87 223.58Q43.21 223.90 42.75 224.80Q42.29 225.69 42.00 226.75Q41.72 227.81 41.58 228.85Q41.44 229.90 41.44 230.53Q41.44 231.09 41.53 231.87Q41.62 232.65 41.82 233.48Q42.01 234.31 42.36 235.05Q42.71 235.80 43.27 236.27Q43.56 236.52 44.16 236.67Q44.76 236.82 45.49 236.89Q46.21 236.96 46.98 236.99Q47.75 237.03 48.41 237.03Q48.35 237.09 48.27 237.20Q48.20 237.32 48.10 237.48L48.80 238.24L47.15 239.18L48.96 239.84Q48.90 240.10 48.83 240.23Q46.84 240.66 44.84 240.78Q44.55 240.79 44.26 240.79Q42.61 240.79 41.22 240.23Q39.96 239.73 39.17 238.59Q38.37 237.45 37.93 236.02Q37.48 234.60 37.31 233.07Q37.15 231.53 37.15 230.20ZM50.61 220.99L50.77 220.41L63.85 219.47L63.31 220.30L64.25 221.27L62.65 222.28L64.25 222.98L64.12 223.54L59.81 223.85L59.58 240.32L59.08 240.47L58.00 238.11L57.24 240.13L56.43 239.30L55.48 239.90L55.31 224.05L51.30 224.30L51.47 223.71L50.90 223.25L52.76 221.86L50.61 220.99ZM66.11 232.60Q66.05 231.71 66.03 230.82Q66.03 229.83 66.13 228.85Q66.45 225.47 67.06 223.54Q67.68 221.62 68.88 220.60Q69.31 220.23 69.98 219.85Q70.65 219.47 71.49 219.19Q72.32 218.91 73.27 218.79Q73.72 218.74 74.18 218.74L75.20 218.81L75.13 220.73L76.75 219.75L77.44 220.76L78.54 220.33Q79.77 221.59 80.42 223.94Q81.08 226.29 81.08 229.70Q81.08 230.83 80.95 232.18Q80.82 233.52 80.49 234.80Q80.16 236.09 79.61 237.16Q79.06 238.24 78.23 238.84Q77.07 239.66 75.90 240.10Q74.73 240.53 73.61 240.65Q73.09 240.70 72.58 240.70Q72.01 240.70 71.49 240.63Q70.51 240.50 69.70 240.19Q68.68 239.82 67.93 238.70Q67.18 237.58 66.72 236.02Q66.26 234.47 66.11 232.60M70.06 229.57Q70.01 230.20 70.02 230.82Q70.02 231.98 70.18 233.11Q70.43 234.83 71.09 235.86Q71.41 236.40 72.04 236.66Q72.67 236.93 73.39 236.93Q74.10 236.93 74.74 236.68Q75.39 236.43 75.73 235.89Q76.05 235.36 76.37 234.35Q76.68 233.34 76.87 232.12Q77.05 230.90 77.09 229.57Q77.09 229.40 77.09 229.22Q77.09 228.09 76.89 227.04Q76.68 225.82 76.19 224.87Q75.70 223.92 74.86 223.42Q74.32 223.09 73.61 223.09Q73.58 223.09 73.53 223.09Q72.77 223.11 72.22 223.61Q71.27 224.47 70.73 226.11Q70.18 227.75 70.06 229.57ZM97.31 220.31L97.19 219.70Q95.38 219.10 93.55 218.78Q91.72 218.45 90.00 218.42Q89.90 218.42 89.82 218.42Q88.21 218.42 86.80 218.68Q85.33 218.97 84.23 219.68Q83.57 220.62 82.98 221.57Q82.39 222.53 82.26 223.72Q82.23 224.01 82.23 224.34Q82.23 225.26 82.50 226.29Q82.84 227.67 83.71 229.09Q83.88 229.40 84.05 229.67Q84.23 229.95 84.62 230.44Q85.01 230.93 85.47 231.41Q85.93 231.89 86.36 232.26Q85.96 233.21 85.49 234.27Q85.02 235.33 84.58 236.31Q84.13 237.28 83.72 238.09Q83.31 238.90 83.08 239.35L83.31 239.60L85.23 238.55L85.33 240.19L85.99 239.90L86.59 240.31L90.63 234.13L92.70 234.97L92.85 239.94L93.38 239.87L94.50 238.14L95.34 240.39L95.93 240.15Q95.97 239.16 96.06 237.32Q96.14 235.47 96.22 233.31Q96.29 231.14 96.31 228.91Q96.32 226.68 96.19 224.85L96.10 223.56L97.16 222.80L95.42 221.22L97.31 220.31M92.35 230.71Q91.15 230.24 89.89 229.44Q88.63 228.64 87.71 227.68Q86.80 226.73 86.38 225.71Q86.19 225.26 86.19 224.81Q86.19 224.27 86.46 223.76Q86.75 223.22 87.71 223.09Q88.50 222.96 89.32 222.96Q89.50 222.96 89.69 222.96Q90.87 223.03 92.30 223.29L92.35 230.71ZM106.38 236.35Q106.33 235.41 106.39 234.44Q106.39 231.32 106.37 228.41Q106.34 225.50 106.30 223.10Q106.26 220.70 106.25 219.34L106.84 219.37L108.28 220.59L109.14 219.25L110.00 219.47Q110.06 220.91 110.07 223.00Q110.08 225.10 110.14 230.06Q110.21 235.02 110.26 236.72Q113.04 237.07 113.20 236.59Q113.33 231.32 113.29 229.65Q113.26 227.97 113.29 226.25Q113.31 224.53 113.29 222.62Q113.26 220.72 113.39 219.73L113.76 219.88L114.10 219.13L115.57 220.12L117.00 219.68Q116.98 221.46 116.96 223.24Q116.93 225.02 117.00 226.43Q117.08 227.84 117.03 229.36Q116.98 230.87 116.98 232.71Q116.98 234.08 116.96 236.78L119.21 236.80L119.00 238.40L120.49 238.67L120.15 243.98L119.79 243.65L118.85 244.51L118.26 242.81L117.32 244.06L117.19 240.58L114.85 240.53Q112.79 240.32 112.23 240.42Q111.56 240.52 109.59 240.45L108.62 240.32L107.88 240.27L106.88 240.23Q106.52 240.29 106.09 240.31Q103.97 240.42 101.75 240.21L100.80 240.10L100.07 240.03L99.30 239.87Q99.34 237.20 99.34 234.08Q99.34 230.95 99.32 228.04Q99.30 225.13 99.26 222.73Q99.23 220.33 99.20 218.97L99.81 219.02L100.93 220.22L102.27 218.87L102.97 219.12Q103.01 220.52 103.02 222.62Q103.03 224.71 103.09 229.69Q103.16 234.67 103.19 236.35Q104.74 236.65 106.38 236.35ZM136.34 239.69L135.55 239.97L134.66 238.09L133.50 239.79L132.63 239.90L132.79 227.44L131.62 229.77L125.58 239.84L124.98 239.97L123.46 238.85L122.52 240.03L122.18 239.82L122.15 219.44L122.70 219.36L123.83 221.35L125.18 219.37L125.95 219.86L125.79 231.53L125.74 233.34L132.51 219.76L133.82 220.23L134.89 219.07L136.49 219.79L136.34 239.69ZM152.51 239.69L151.72 239.97L150.83 238.09L149.66 239.79L148.79 239.90L148.95 227.44L147.79 229.77L141.74 239.84L141.15 239.97L139.63 238.85L138.69 240.03L138.35 239.82L138.32 219.44L138.87 219.36L140.00 221.35L141.34 219.37L142.12 219.86L141.95 231.53L141.90 233.34L148.68 219.76L149.99 220.23L151.05 219.07L152.65 219.79L152.51 239.69M141.71 217.01L143.04 215.95L141.81 215.61L142.13 214.77L149.76 214.86L149.95 215.56L148.87 216.29L150.28 216.84L149.76 217.45L142.05 218.28L142.41 217.37L141.71 217.01ZM160.78 216.30L160.98 215.33Q162.66 214.67 164.63 214.36Q166.60 214.04 168.45 214.04Q170.29 214.04 171.81 214.39Q173.33 214.74 174.18 215.40Q175.41 216.38 176.08 217.83Q176.74 219.28 176.92 220.85Q176.98 221.44 177.00 222.04Q177.00 223.01 176.80 223.95Q176.51 225.47 175.82 226.60Q174.33 228.98 171.86 230.38Q169.38 231.79 166.44 232.55Q166.38 233.44 166.33 234.50Q166.28 235.57 166.25 236.61Q166.22 237.66 166.22 238.59L166.22 240.19L165.49 240.57L163.79 237.09L162.43 239.90L161.92 239.47Q161.88 238.64 161.86 237.27Q161.84 235.89 161.79 234.21Q161.74 232.52 161.71 230.65Q161.67 228.78 161.66 226.91Q161.64 225.97 161.65 225.07Q161.66 224.18 161.66 223.30Q161.67 221.56 161.71 220.13L162.55 218.87L161.64 218.39L163.60 216.59L160.78 216.30M166.25 227.75Q167.04 227.65 167.75 227.40Q168.46 227.15 169.06 226.86Q169.66 226.57 170.09 226.25Q170.52 225.94 170.74 225.73Q171.24 225.26 171.67 224.59Q172.10 223.92 172.34 223.17Q172.52 222.59 172.52 221.98Q172.52 221.80 172.50 221.62Q172.44 220.83 171.91 220.13Q171.31 219.34 170.58 219.08Q169.93 218.84 169.25 218.84Q169.17 218.84 169.09 218.84Q168.33 218.87 167.62 219.14Q166.91 219.41 166.35 219.68Q166.28 221.57 166.28 223.57Q166.28 225.57 166.25 227.75ZM179.02 221.07L179.47 220.00L179.24 219.57L188.72 218.94L189.01 220.23L186.95 221.65L188.91 222.25L188.65 222.98L183.82 223.42L183.71 228.51L188.54 228.35L187.99 230.08L188.94 230.46L188.78 231.35L183.77 231.85L183.98 237.25L188.97 237.06L188.65 238.77L189.54 239.18L189.17 240.44L181.36 240.89L181.49 239.21L179.47 239.34L179.68 223.85L179.28 223.19L180.70 221.96L179.02 221.07ZM191.45 240.63L192.47 219.05L193.50 218.61L194.76 221.49L196.15 219.18L196.85 219.88L197.43 219.37L200.42 228.69L200.95 228.69L203.89 219.28L204.85 220.00L206.14 218.99L207.27 220.60L208.73 219.28L209.71 239.94L209.08 240.10L208.03 238.32L207.37 239.97L206.77 239.43L205.95 239.77L205.22 229.67L204.62 229.51L201.15 238.84L200.55 238.32L199.92 238.58L196.51 229.83L195.97 229.77L195.28 240.03L194.26 240.32L193.00 238.32L192.01 240.79L191.45 240.63ZM211.72 232.60Q211.65 231.71 211.64 230.82Q211.64 229.83 211.73 228.85Q212.06 225.47 212.67 223.54Q213.29 221.62 214.48 220.60Q214.92 220.23 215.59 219.85Q216.26 219.47 217.09 219.19Q217.92 218.91 218.88 218.79Q219.33 218.74 219.78 218.74L220.80 218.81L220.74 220.73L222.35 219.75L223.05 220.76L224.15 220.33Q225.38 221.59 226.03 223.94Q226.69 226.29 226.69 229.70Q226.69 230.83 226.56 232.18Q226.43 233.52 226.10 234.80Q225.76 236.09 225.21 237.16Q224.67 238.24 223.84 238.84Q222.68 239.66 221.51 240.10Q220.33 240.53 219.22 240.65Q218.70 240.70 218.18 240.70Q217.62 240.70 217.10 240.63Q216.11 240.50 215.31 240.19Q214.29 239.82 213.54 238.70Q212.78 237.58 212.32 236.02Q211.86 234.47 211.72 232.60M215.66 229.57Q215.61 230.20 215.63 230.82Q215.63 231.98 215.79 233.11Q216.03 234.83 216.70 235.86Q217.02 236.40 217.65 236.66Q218.28 236.93 218.99 236.93Q219.70 236.93 220.35 236.68Q221.00 236.43 221.34 235.89Q221.66 235.36 221.97 234.35Q222.29 233.34 222.47 232.12Q222.66 230.90 222.69 229.57Q222.69 229.40 222.69 229.22Q222.69 228.09 222.50 227.04Q222.29 225.82 221.80 224.87Q221.30 223.92 220.46 223.42Q219.93 223.09 219.22 223.09Q219.19 223.09 219.14 223.09Q218.38 223.11 217.83 223.61Q216.87 224.47 216.33 226.11Q215.79 227.75 215.66 229.57ZM229.09 240.32L229.37 219.84L230.73 220.83L232.47 219.31L233.20 219.78L233.70 219.60L233.47 228.57L239.55 228.15L239.58 219.25L240.46 220.30L242.11 218.71L243.27 219.34L243.72 219.18L243.46 240.47L243.14 240.53L242.01 238.87L241.02 240.50L240.33 239.90L239.36 240.13L239.49 232.29L233.44 232.74L233.47 240.16L232.54 240.40L231.52 239.14L230.32 240.50L229.69 240.13L229.09 240.32ZM245.68 220.99L245.84 220.41L258.92 219.47L258.38 220.30L259.32 221.27L257.72 222.28L259.32 222.98L259.19 223.54L254.88 223.85L254.65 240.32L254.15 240.47L253.07 238.11L252.31 240.13L251.50 239.30L250.54 239.90L250.38 224.05L246.37 224.30L246.54 223.71L245.97 223.25L247.83 221.86L245.68 220.99Z" fill="#BDD684" style="fill: rgb(189, 214, 132);"></path></g><g id="SvgjsG2010" rel="mainfill" name="symbol" xmlns:name="symbol_mainfill" transform="translate(87.27499847412109,-5.040000152587891) scale(0.8)" fill="#BDD684"><g display="none" fill="#BDD684"><path display="inline" d="M18.8,50.6l4.2-4l25.5-24.6c0.8-0.7,1.8-1.2,2.9-1.2c1.1,0,2.2,0.4,2.9,1.2l24.2,24.5l4.4,4.5   c0.2,0.2,0.4,0.6,0.4,0.5c0.7,1.3,0.7,1.2,0.7,2v2.3v19.3c0,1.7-1.3,3-3,3H60.2c-1.7,0-3-1.3-3-3v-19h-4V59v16.1   c0,2.7,1.5,5,3.7,6.2c1,0.5,2.1,0.8,3.3,0.8h20.7c3.9,0,7-3.1,7-7V53.6c0-1.5-0.5-2.9-1.3-4c-0.3-0.4-0.6-0.8-0.9-1.3L57.1,19.3   c-1.5-1.6-3.6-2.4-5.8-2.4c-2.1,0-4.1,0.8-5.6,2.3L17.1,46.6" fill="#BDD684" style="fill: rgb(189, 214, 132);"></path><path display="inline" fill="#BDD684" stroke="" stroke-width="4" stroke-linecap="round" stroke-miterlimit="10" d="   M55.2,56.2V53c0,0,0.2-2.1-3.1-1.9c-1.8,0.1-4.1,0.1-5.9,0.1c-1.4,0-2.5,1.1-2.5,2.5v23.3" style="fill: rgb(189, 214, 132);"></path><line display="inline" fill="none" stroke="" stroke-width="4" stroke-linecap="round" stroke-miterlimit="10" x1="18.5" y1="48.1" x2="18.5" y2="58.9"></line></g><g display="none" fill="#BDD684"><g display="inline" fill="#BDD684"><path fill="#BDD684" stroke="" stroke-width="9" stroke-linecap="round" stroke-linejoin="round" stroke-miterlimit="10" d="    M10.7,46.8l31.8-33c7-4.7,8.4-4.3,13.4-0.8c0.5,0.3,0.9,0.7,1.3,1.2l31.8,35.5c0.8,0.8,1.3,1.9,1.3,3.1V81c0,4.5-3.6,8.1-8.1,8.1    H65.8c-3.6,0-6.5-2.9-6.5-6.5V63.9c0-2.3-1.8-4.1-4.1-4.1H40.5" style="fill: rgb(189, 214, 132);"></path></g><path display="inline" d="M41.3,69.4l-8.4-7c-2.3-1.3-2.3-4.7,0-6l8.4-7c2.3-1.3,5.2,0.3,5.2,3v13.9C46.5,69.1,43.6,70.7,41.3,69.4   z" fill="#BDD684" style="fill: rgb(189, 214, 132);"></path></g><g fill="#BDD684"><path d="M87.8,42.5L55.2,10c-2.4-2.4-5.6-3.7-9-3.7c-3.4,0-6.6,1.3-9,3.7L13.5,33.6c-1.8,1.8-1.8,4.6,0,6.4c1.8,1.8,4.6,1.8,6.4,0   l23.7-23.7c1.4-1.4,3.9-1.4,5.4,0l32.6,32.6c1,1,1.5,2.2,1.5,3.6v29.9c0,1.3-1,2.3-2.3,2.3H70.5c-2.6,0-4.7-2.1-4.7-4.7V66.1   c0-6.2-5-11.2-11.2-11.2H42.3c-6.1,0-11,5-11,11v14c0,2.5,2,4.5,4.5,4.5s4.5-2,4.5-4.5V66c0-1.1,0.9-2,2-2h12.3   c1.2,0,2.2,1,2.2,2.2V80c0,7.6,6.1,13.7,13.7,13.7h10.2c6.2,0,11.3-5.1,11.3-11.3V52.4C91.9,48.7,90.4,45.2,87.8,42.5z" fill="#BDD684" style="fill: rgb(189, 214, 132);"></path></g></g></svg>