<svg xmlns="http://www.w3.org/2000/svg" version="1.1" xmlns:xlink="http://www.w3.org/1999/xlink" xmlns:svgjs="http://svgjs.com/svgjs" height="90.42999267578125" width="257.3399963378906"><defs id="SvgjsDefs1134"></defs><g id="SvgjsG1135" rel="mainfill" name="main_text" xmlns:name="main_text" transform="translate(-2.009999990463257,-186.39999389648438)" fill="#8F9E8B"><path d="M2.01 194.40L25.10 194.40L25.10 201.44L4.41 201.44L4.41 215.44Q7.21 212.99 10.73 211.87Q13.39 211.01 16.02 211.01Q16.84 211.01 17.66 211.10Q21.09 211.45 24.02 213.39Q26.96 215.32 28.69 218.96Q30.16 222.16 30.16 225.82Q30.16 226.66 30.09 227.52Q29.67 232.14 27.08 235.50Q25.56 237.43 23.20 238.68Q20.83 239.93 18.38 239.93L2.01 239.93L2.01 194.40M4.41 218.75L4.41 232.89L18.57 232.89Q23.00 232.77 25.09 230.22Q27.17 227.66 27.17 224.44Q27.17 220.80 24.79 217.46Q22.41 214.11 18.45 213.60Q17.47 213.48 16.44 213.48Q14.06 213.48 11.48 214.16Q7.77 215.16 4.41 218.75ZM33.49 217.70L35.52 217.75Q42.17 219.19 45.83 222.39Q49.49 225.59 50.80 228.94Q51.59 231.02 51.59 233.14Q51.59 233.31 51.59 233.47Q51.48 235.71 50.50 237.32Q48.80 240.12 45.69 240.12Q45.25 240.12 44.78 240.07L35.52 240.07L35.52 268.83L33.49 268.83L33.49 217.70M35.52 219.89L35.52 234.29L45.09 234.29Q48.17 234.29 48.54 232.23Q48.70 231.30 48.70 230.58Q48.70 229.69 48.47 229.11Q47.51 226.75 45.86 225.12Q44.18 223.46 41.61 222.10Q39.05 220.73 35.52 219.89ZM54.53 217.77L56.59 217.77L56.59 232.09L71.72 218.07L71.72 217.77L72.07 217.77L73.75 217.77L73.75 240.07L71.72 240.07L71.72 226.08L56.59 240.05L56.59 240.07L56.56 240.07L56.31 240.30L56.31 240.07L54.53 240.07L54.53 217.77ZM76.74 217.77L87.91 217.77L87.91 223.56L78.77 223.56L78.77 240.07L76.74 240.07L76.74 217.77ZM99.92 217.77Q105.26 217.77 107.83 221.46L107.83 217.77L109.86 217.77L109.86 228.92Q109.86 229.85 109.82 230.38Q109.79 230.90 109.79 231.63Q109.79 233.17 110.12 233.26Q110.61 233.40 110.89 234.59L110.89 240.35L108.79 239.93L108.11 239.00Q107.50 239.09 107.12 239.41Q106.73 239.72 106.13 239.81Q104.63 240.02 102.93 240.02Q101.21 240.02 99.71 240.07Q99.55 240.07 99.39 240.07Q94.77 240.07 92.44 236.83Q90.01 233.49 90.01 228.92Q90.01 224.33 92.91 221.05Q95.82 217.77 99.92 217.77M106.76 232.96Q107.55 232.12 107.60 230.69Q107.62 229.29 107.62 227.96Q107.62 223.95 105.40 221.98Q103.19 220.01 100.09 220.01Q96.96 220.01 94.76 222.47Q92.55 224.93 92.55 227.96Q92.55 231.60 94.79 232.97Q97.03 234.33 99.85 234.54Q100.46 234.59 101.11 234.59Q102.23 234.59 103.51 234.45Q105.57 234.22 106.76 232.96ZM119.89 217.77L131.83 217.77L131.83 234.38L135.47 234.38L135.47 240.14L135.45 240.14L135.45 251.97L133.42 251.97L133.42 240.14L115.57 240.14L115.57 251.97L113.54 251.97L113.54 234.47L113.59 234.47L113.59 234.38L117.11 234.38Q118.86 230.34 119.38 226.17Q119.89 221.99 119.89 217.77M119.19 234.38L129.80 234.38L129.80 223.56L121.75 223.56Q121.36 229.41 119.19 234.38ZM147.99 217.77Q153.34 217.77 155.90 221.46L155.90 217.77L157.93 217.77L157.93 228.92Q157.93 229.85 157.90 230.38Q157.86 230.90 157.86 231.63Q157.86 233.17 158.19 233.26Q158.68 233.40 158.96 234.59L158.96 240.35L156.86 239.93L156.18 239.00Q155.58 239.09 155.19 239.41Q154.81 239.72 154.20 239.81Q152.71 240.02 151.00 240.02Q149.28 240.02 147.79 240.07Q147.62 240.07 147.46 240.07Q142.84 240.07 140.51 236.83Q138.08 233.49 138.08 228.92Q138.08 224.33 140.99 221.05Q143.89 217.77 147.99 217.77M154.83 232.96Q155.62 232.12 155.67 230.69Q155.69 229.29 155.69 227.96Q155.69 223.95 153.48 221.98Q151.26 220.01 148.16 220.01Q145.03 220.01 142.83 222.47Q140.62 224.93 140.62 227.96Q140.62 231.60 142.86 232.97Q145.10 234.33 147.93 234.54Q148.53 234.59 149.18 234.59Q150.30 234.59 151.59 234.45Q153.64 234.22 154.83 232.96ZM189.23 203.61L204.74 230.09L204.74 203.61L205.68 203.61L205.68 203.59L213.61 203.61L213.61 209.09L207.08 209.09L207.08 239.95L204.74 239.95L189.23 213.43L189.23 239.95L186.90 239.95L186.90 203.61L189.23 203.61M210.11 236.48L210.11 234.45L220.56 234.45L220.56 236.48L210.11 236.48M210.11 232.79L210.11 230.76L220.56 230.76L220.56 232.79L210.11 232.79M215.36 214.30Q218.09 214.30 220.03 216.49Q221.98 218.68 221.98 221.74Q221.98 224.82 220.32 227.01Q218.67 229.20 215.36 229.20Q211.86 229.20 210.27 226.84Q208.78 224.65 208.78 221.76Q208.78 221.55 208.78 221.34Q208.85 218.68 210.67 216.49Q212.49 214.30 215.36 214.30M215.45 215.79Q213.37 215.79 211.90 217.43Q210.44 219.08 210.44 221.08Q210.44 223.11 211.90 224.35Q213.37 225.59 215.45 225.59Q217.53 225.59 219.01 224.35Q220.49 223.11 220.49 221.08Q220.49 219.08 219.01 217.43Q217.53 215.79 215.45 215.79ZM240.36 213.11Q240.36 213.01 240.36 212.92Q240.36 211.57 239.36 210.54Q238.28 209.44 235.93 209.44L225.85 209.44L225.85 203.64L234.60 203.64Q235.07 203.61 235.51 203.61Q240.55 203.61 242.16 206.51Q243.88 209.65 243.93 213.06Q243.93 217.35 239.85 223.01Q235.77 228.66 232.17 234.03L245.21 234.03L245.21 240.02L224.22 240.05L234.20 226.59Q236.56 223.39 238.37 220.05Q240.17 216.70 240.36 213.11ZM248.08 239.93L248.08 233.96L252.47 233.96L252.47 212.71L248.24 212.71L248.24 206.83L252.47 206.83L252.47 203.73L254.87 203.73L254.87 233.96L259.35 233.96L259.35 239.93L248.08 239.93Z" fill="#8F9E8B" style="fill: rgb(143, 158, 139);"></path></g></svg>