<svg xmlns="http://www.w3.org/2000/svg" version="1.1" xmlns:xlink="http://www.w3.org/1999/xlink" xmlns:svgjs="http://svgjs.com/svgjs" height="179.587663269043" width="261.8800048828125"><defs id="SvgjsDefs2457"></defs><g id="SvgjsG2458" rel="mainfill" name="main_text" xmlns:name="main_text" transform="translate(-0.12999999523162842,-60.682341003417946)" fill="#284907"><path d="M18.09 232.09L9.78 196.58L12.33 194.77L12.33 193.03L0.13 193.03L0.13 195.10L2.61 196.58L13.40 240.27L20.24 240.27L30.76 196.38L33.10 195.10L33.10 193.03L23.92 193.03L23.92 195.10L26.47 196.31L18.16 232.09ZM52.94 228.68L54.88 236.98L52.80 238.39L52.80 240L63.73 240L63.73 238.06L61.58 236.65L51.93 197.52L45.43 197.52C42.35 209.85 39.00 224.45 36.05 236.85L33.91 238.06L33.91 240L42.35 240L42.35 238.06L40.14 236.92L42.08 228.68ZM47.51 205.22L52.07 225.06L42.89 225.06C44.43 218.09 46.17 210.45 47.44 205.22ZM89.32 240L89.26 230.55L86.51 230.55L84.37 236.18C81.02 236.18 78.34 236.18 74.98 236.18L74.98 235.91C74.98 235.91 76.32 234.97 76.32 233.97C76.32 223.05 76.32 212.12 76.32 201.20L78.47 199.53L78.47 197.72L67.55 197.72L67.55 199.53L69.76 201.20C69.76 212.93 69.76 224.59 69.76 236.31L67.14 238.19L67.14 240ZM116.53 240L116.53 230.55L113.72 230.55L111.57 236.18L101.59 236.18L101.59 235.85C102.66 235.51 102.93 234.97 102.93 233.97L102.93 220.90L108.42 220.90L110.10 223.98L111.97 223.98L111.97 213.80L110.10 213.80L108.42 217.08L102.93 217.08L102.93 201.47L110.84 201.47L112.58 207.16L115.73 207.16L115.73 197.72L94.15 197.72L94.15 199.32L96.36 201.00L96.36 236.31L93.75 238.19L93.75 240ZM129.66 210.25L128.93 204.55C128.99 204.55 129.06 204.48 129.13 204.48L138.64 237.86C138.98 239.13 139.78 240 141.32 240L146.75 240L146.75 201.34L148.96 199.66L148.96 197.72L140.12 197.72L140.12 199.66L142.33 201.34L142.33 220.77C142.33 223.65 142.53 227.40 142.53 230.42L142.40 230.42L139.92 218.96L134.15 200.33C133.55 198.25 132.75 197.78 130.80 197.72L122.96 197.72L122.96 199.53L125.11 201.20L125.11 236.38L122.70 238.06L122.70 240L132.14 240L132.14 238.06L129.66 236.38ZM174.09 201.67L176.24 208.44L179.25 208.44L178.98 197.72C170.74 197.72 162.50 197.72 154.19 197.72L153.99 208.44L157.01 208.44L159.02 201.67L163.30 201.67C163.30 213.13 163.30 224.52 163.30 235.91L160.76 237.86L160.76 240C164.24 240 168.93 240 172.42 240L172.42 237.86L169.94 235.91C169.94 224.52 169.94 213.13 169.94 201.67ZM193.39 201.20L195.54 199.53L195.54 197.72L184.81 197.72L184.81 199.53L186.96 201.20C186.96 212.93 186.96 224.59 186.96 236.31L184.41 238.19L184.41 240C187.90 240 192.45 240 195.87 240L195.87 238.19L193.39 236.31ZM209.34 210.25L208.60 204.55C208.67 204.55 208.74 204.48 208.80 204.48L218.32 237.86C218.65 239.13 219.46 240 221.00 240L226.43 240L226.43 201.34L228.64 199.66L228.64 197.72L219.79 197.72L219.79 199.66L222.01 201.34L222.01 220.77C222.01 223.65 222.21 227.40 222.21 230.42L222.07 230.42L219.59 218.96L213.83 200.33C213.23 198.25 212.42 197.78 210.48 197.72L202.64 197.72L202.64 199.53L204.78 201.20L204.78 236.38L202.37 238.06L202.37 240L211.82 240L211.82 238.06L209.34 236.38ZM251.22 228.68L253.16 236.98L251.09 238.39L251.09 240L262.01 240L262.01 238.06L259.87 236.65L250.22 197.52L243.72 197.52C240.63 209.85 237.28 224.45 234.34 236.85L232.19 238.06L232.19 240L240.63 240L240.63 238.06L238.42 236.92L240.37 228.68ZM245.79 205.22L250.35 225.06L241.17 225.06C242.71 218.09 244.45 210.45 245.73 205.22Z" fill="#284907" style="fill: rgb(40, 73, 7);"></path></g><g id="SvgjsG2459" rel="mainfill" name="symbol" xmlns:name="symbol_mainfill" transform="translate(72.13900782167912,-0.1298481822013784) scale(4.9)" fill="#284907"><g fill="#284907"><path d="M13.872,5.162h-3.747c-0.488,0-0.886,0.397-0.886,0.886v3.703c0,0.488,0.397,0.886,0.886,0.886h3.747   c0.488,0,0.886-0.398,0.886-0.887V6.048C14.758,5.56,14.36,5.162,13.872,5.162z M13.957,9.75c0,0.049-0.037,0.086-0.085,0.086   h-3.747c-0.047,0-0.085-0.038-0.085-0.085V6.048c0-0.047,0.038-0.085,0.085-0.085h3.747c0.048,0,0.085,0.037,0.085,0.085V9.75z" fill="#284907" style="fill: rgb(40, 73, 7);"></path><path d="M15.48,2.654v0.479l-2.856-2.856c-0.337-0.335-0.918-0.333-1.253,0L0.276,11.371c-0.253,0.253-0.328,0.632-0.191,0.966   c0.137,0.332,0.458,0.547,0.817,0.547h1.716v10.204c0,0.488,0.397,0.886,0.886,0.886h9.266c0.221,0,0.4-0.18,0.4-0.4   s-0.18-0.4-0.4-0.4H3.504c-0.047,0-0.085-0.038-0.085-0.085V12.884h19.675c0.358,0,0.68-0.215,0.816-0.546   c0.139-0.332,0.064-0.711-0.19-0.967l-3.476-3.476V2.654c0-0.488-0.397-0.886-0.886-0.886h-2.992   C15.878,1.768,15.48,2.165,15.48,2.654z M23.172,12.031c-0.014,0.033-0.044,0.053-0.078,0.053H0.902l-0.06-0.146L11.937,0.843   L11.654,0.56l0.403,0.283l3.54,3.539l3.963,3.963L23.172,12.031z M19.443,2.654v4.441l-3.162-3.162V2.654   c0-0.047,0.038-0.085,0.085-0.085h2.992C19.404,2.569,19.443,2.608,19.443,2.654z" fill="#284907" style="fill: rgb(40, 73, 7);"></path><path d="M19.004,14.017c-2.745,0-4.979,2.233-4.979,4.979s2.233,4.979,4.979,4.979s4.979-2.233,4.979-4.979   S21.749,14.017,19.004,14.017z M19.004,23.173c-2.304,0-4.178-1.874-4.178-4.178s1.874-4.178,4.178-4.178s4.178,1.874,4.178,4.178   S21.308,23.173,19.004,23.173z" fill="#284907" style="fill: rgb(40, 73, 7);"></path><path d="M21.126,17.105l-2.91,2.91l-1.336-1.317c-0.158-0.154-0.412-0.153-0.566,0.004c-0.155,0.158-0.153,0.411,0.004,0.566   l1.619,1.596c0.02,0.019,0.044,0.029,0.066,0.043c0.066,0.043,0.139,0.072,0.215,0.072c0.052,0,0.103-0.01,0.151-0.03   c0.015-0.006,0.026-0.019,0.04-0.027c0.032-0.018,0.064-0.034,0.091-0.061l3.191-3.191c0.156-0.156,0.156-0.41,0-0.566   S21.282,16.948,21.126,17.105z" fill="#284907" style="fill: rgb(40, 73, 7);"></path></g></g></svg>