<svg xmlns="http://www.w3.org/2000/svg" version="1.1" xmlns:xlink="http://www.w3.org/1999/xlink" xmlns:svgjs="http://svgjs.com/svgjs" height="55.910003662109375" width="255.65000915527344"><defs id="SvgjsDefs1612"></defs><g id="SvgjsG1613" rel="mainfill" name="main_text" xmlns:name="main_text" transform="translate(-2.759999990463257,-202.25999450683594)" fill="#588F27"><path d="M3.53 210.65C3.10 210.65 2.76 211.00 2.76 211.43L2.76 239.22C2.76 239.66 3.10 240 3.53 240L13.88 240C16.07 240 18.45 239.61 20.38 238.58C22.88 237.28 24.74 234.87 24.74 230.95C24.74 226.68 22.84 224.44 20.38 223.28C18.06 222.16 15.26 222.03 13.14 222.03L10.34 222.03L10.34 217.37L21.68 217.37C22.11 217.37 22.45 217.03 22.45 216.60L22.45 211.43C22.45 211.00 22.11 210.65 21.68 210.65ZM16.98 230.95C16.98 232.16 16.51 232.89 15.77 233.32C15.08 233.71 14.14 233.84 13.14 233.84L10.34 233.84L10.34 228.11L12.54 228.11C13.70 228.11 14.65 228.28 15.34 228.54C16.51 229.01 16.98 229.83 16.98 230.95ZM35.99 225.52C36.59 225.43 37.36 225.39 38.01 225.39C39.35 225.39 40.42 225.86 41.16 226.77C41.80 227.59 42.15 228.71 42.15 230.13C42.15 231.90 41.67 233.15 40.81 233.84C39.91 234.57 38.79 234.74 37.49 234.74C36.98 234.74 36.37 234.70 35.99 234.61ZM29.78 220.43C29.26 220.56 29.00 220.87 29.00 221.30L29.00 249.39C29.00 249.83 29.35 250.17 29.78 250.17L35.21 250.17C35.64 250.17 35.99 249.83 35.99 249.39L35.99 240.34C36.67 240.43 37.45 240.43 38.23 240.43C41.50 240.43 44.73 239.44 46.80 237.07C48.22 235.43 49.09 233.19 49.09 230.13C49.09 227.03 48.10 224.66 46.46 222.98C44.35 220.78 41.07 219.74 37.28 219.74C34.52 219.74 31.63 220.00 29.78 220.43ZM74.04 220.87C74.04 220.43 73.69 220.09 73.26 220.09L67.83 220.09C67.40 220.09 67.06 220.43 67.06 220.87L67.06 223.58L60.16 229.40L60.16 220.87C60.16 220.43 59.82 220.09 59.39 220.09L53.96 220.09C53.53 220.09 53.18 220.43 53.18 220.87L53.18 239.22C53.18 239.66 53.53 240 53.96 240L59.39 240C59.82 240 60.16 239.66 60.16 239.22L60.16 236.60L67.06 230.82L67.06 239.22C67.06 239.66 67.40 240 67.83 240L73.26 240C73.69 240 74.04 239.66 74.04 239.22ZM85.46 240C85.89 240 86.24 239.66 86.24 239.22L86.24 226.25L93.78 226.25C94.21 226.25 94.55 225.91 94.55 225.48L94.55 220.87C94.55 220.43 94.21 220.09 93.78 220.09L80.07 220.09C79.64 220.09 79.30 220.43 79.30 220.87L79.30 239.22C79.30 239.66 79.64 240 80.07 240ZM105.41 224.96C106.28 224.96 106.92 225.22 107.22 225.65C107.53 226.04 107.61 226.60 107.61 227.29L107.61 227.59C105.41 227.80 102.53 228.19 100.33 229.23C98.35 230.17 96.92 231.68 96.92 234.18C96.92 236.08 97.61 237.67 98.73 238.75C99.85 239.83 101.41 240.43 103.22 240.43C105.07 240.43 106.49 240.17 108.17 239.05L108.34 239.05L108.34 239.22C108.34 239.66 108.69 240 109.12 240L113.82 240C114.25 240 114.59 239.66 114.59 239.22L114.59 227.24C114.59 224.79 113.95 223.24 112.83 222.03C111.06 220.13 108.34 219.74 106.32 219.74C103.00 219.74 99.94 220.74 98.00 221.94C97.53 222.24 97.48 222.50 97.70 222.93L99.21 226.25C99.42 226.77 99.81 226.77 100.33 226.51C101.75 225.74 103.56 224.96 105.41 224.96ZM105.50 235.52C104.90 235.52 104.42 235.39 104.08 235.13C103.73 234.87 103.56 234.48 103.56 233.97C103.56 233.15 104.25 232.63 105.11 232.37C105.89 232.11 107.22 232.03 107.61 232.03L107.61 234.87C106.88 235.35 106.10 235.52 105.50 235.52ZM143.25 220.87C143.25 220.43 142.91 220.09 142.48 220.09L125.84 220.09C125.41 220.09 125.07 220.43 125.07 220.87L125.07 223.41C125.02 225.48 124.94 227.29 124.63 228.92C124.33 230.69 123.82 232.29 123.00 233.84L118.69 233.84C118.26 233.84 117.91 234.18 117.91 234.61L117.91 246.51C117.91 246.94 118.26 247.28 118.69 247.28L124.03 247.28C124.46 247.28 124.81 246.94 124.81 246.51L124.81 240L143.08 240L143.08 246.51C143.08 246.94 143.42 247.28 143.86 247.28L149.16 247.28C149.59 247.28 149.93 246.94 149.93 246.51L149.93 234.61C149.93 234.18 149.59 233.84 149.16 233.84L143.25 233.84ZM131.83 226.25L136.31 226.25L136.31 233.84L129.94 233.84C130.45 232.72 130.88 231.60 131.19 230.43C131.49 229.14 131.70 227.80 131.83 226.25ZM160.40 224.96C161.27 224.96 161.91 225.22 162.21 225.65C162.52 226.04 162.60 226.60 162.60 227.29L162.60 227.59C160.40 227.80 157.52 228.19 155.32 229.23C153.34 230.17 151.91 231.68 151.91 234.18C151.91 236.08 152.60 237.67 153.72 238.75C154.85 239.83 156.40 240.43 158.21 240.43C160.06 240.43 161.48 240.17 163.16 239.05L163.33 239.05L163.33 239.22C163.33 239.66 163.68 240 164.11 240L168.81 240C169.24 240 169.58 239.66 169.58 239.22L169.58 227.24C169.58 224.79 168.94 223.24 167.82 222.03C166.05 220.13 163.33 219.74 161.31 219.74C157.99 219.74 154.93 220.74 152.99 221.94C152.52 222.24 152.47 222.50 152.69 222.93L154.20 226.25C154.41 226.77 154.80 226.77 155.32 226.51C156.74 225.74 158.55 224.96 160.40 224.96ZM160.49 235.52C159.89 235.52 159.41 235.39 159.07 235.13C158.72 234.87 158.55 234.48 158.55 233.97C158.55 233.15 159.24 232.63 160.10 232.37C160.88 232.11 162.21 232.03 162.60 232.03L162.60 234.87C161.87 235.35 161.09 235.52 160.49 235.52ZM193.76 233.45C193.76 232.33 194.15 231.51 195.10 230.78C197.38 228.97 200.57 228.32 203.41 225.48C205.18 223.71 206.13 221.47 206.13 218.84C206.13 216.64 205.35 214.66 203.97 213.19C202.29 211.38 199.71 210.26 196.61 210.26C191.91 210.26 188.80 211.90 186.35 213.50C185.92 213.80 185.83 214.10 186.05 214.49L188.16 218.80C188.42 219.36 188.93 219.23 189.37 218.97C191.69 217.42 193.85 216.51 195.96 216.51C197.08 216.51 197.77 216.77 198.24 217.20C198.80 217.72 199.02 218.49 199.02 219.06C199.02 220.05 198.67 220.82 197.98 221.51C195.74 223.62 192.08 224.36 189.06 227.24C186.61 229.61 185.62 232.37 185.62 236.60L185.62 239.22C185.62 239.66 185.96 240 186.39 240L204.97 240C205.40 240 205.74 239.66 205.74 239.22L205.74 234.23C205.74 233.79 205.40 233.45 204.97 233.45ZM224.83 214.92C224.83 214.49 224.49 214.14 224.06 214.14L219.06 214.14C218.63 214.14 218.28 214.49 218.28 214.92L218.28 221.51L211.69 221.51C211.26 221.51 210.91 221.86 210.91 222.29L210.91 227.29C210.91 227.72 211.26 228.06 211.69 228.06L218.28 228.06L218.28 234.70C218.28 235.13 218.63 235.47 219.06 235.47L224.06 235.47C224.49 235.47 224.83 235.13 224.83 234.70L224.83 228.06L231.47 228.06C231.90 228.06 232.25 227.72 232.25 227.29L232.25 222.29C232.25 221.86 231.90 221.51 231.47 221.51L224.83 221.51ZM244.36 218.19L244.36 233.45L238.24 233.45C237.81 233.45 237.46 233.79 237.46 234.23L237.46 239.22C237.46 239.66 237.81 240 238.24 240L257.63 240C258.06 240 258.41 239.66 258.41 239.22L258.41 234.23C258.41 233.79 258.06 233.45 257.63 233.45L251.94 233.45L251.94 211.25C251.94 210.82 251.60 210.48 251.17 210.48L247.55 210.48C247.03 210.48 246.42 210.61 245.91 210.78L238.41 213.19C237.81 213.41 237.63 213.84 237.63 214.31L237.63 219.23C237.63 220.13 237.98 220.26 238.67 220.05Z" fill="#588F27" style="fill: rgb(88, 143, 39);"></path></g></svg>