<?xml version="1.0" encoding="UTF-8"?>
<svg xmlns="http://www.w3.org/2000/svg" xmlns:xlink="http://www.w3.org/1999/xlink" width="512" height="512" viewBox="0 0 60 60" version="1.1"><!-- Generator: Sketch 51.3 (57544) - http://www.bohemiancoding.com/sketch --><title>039 - Money Cover</title><desc>Created with Sketch.</desc><defs/><g id="Page-1" stroke="none" stroke-width="1" fill="none" fill-rule="evenodd"><g id="039---Money-Cover" fill-rule="nonzero"><path d="M48,19 C48,28.9411255 39.9411255,37 30,37 C29.49,37 28.99,36.98 28.5,36.94 C19.159488,36.1754377 11.9684686,28.3717511 11.9684686,19 C11.9684686,9.62824887 19.159488,1.82456234 28.5,1.06 C28.99,1.02 29.49,1 30,1 C39.9411255,1 48,9.0588745 48,19 Z" id="Shape" fill="#CAD9FC"/><ellipse id="Oval" fill="#E8EDFC" cx="28.5" cy="19" rx="16.5" ry="17.94"/><path d="M44,19 C43.9917327,26.7285595 37.7285595,32.9917327 30,33 C29.4989662,32.9988132 28.9983178,32.9721119 28.5,32.92 C21.3873833,32.1563526 15.9945233,26.1534939 15.9945233,19 C15.9945233,11.8465061 21.3873833,5.84364739 28.5,5.08 C28.9983178,5.02788806 29.4989662,5.00118682 30,5 C37.7285595,5.00826732 43.9917327,11.2714405 44,19 Z" id="Shape" fill="#CAD9FC"/><ellipse id="Oval" fill="#E8EDFC" cx="28.5" cy="19" rx="12.5" ry="13.92"/><path d="M14.316,41.738 L9.748,37.169 C8.7681854,36.1891673 7.98418578,35.0314951 7.438,33.758 L5.2,28.539 C4.85513073,27.7350887 4.06476152,27.213681 3.19,27.213 C2.44646337,27.2140738 1.75430881,27.5925026 1.35209231,28.2178583 C0.949875811,28.843214 0.892597968,29.6299831 1.2,30.307 L5.119,38.929 C5.59961649,39.9858913 6.26620497,40.9478381 7.087,41.769 L14.316,49 L24,49 L24,46.139 C24.0326513,43.9976631 23.3373789,41.908673 22.028,40.214 C21.2961932,39.248342 20.2994007,38.5162954 19.159,38.107 C16.9390106,37.1700159 14.8927151,35.8657688 13.106,34.249 C11.6792055,33.057914 9.57863147,33.1551709 8.268,34.473" id="Shape" fill="#E8EDFC"/><path d="M45.682,41.738 L50.251,37.169 C51.2308146,36.1891673 52.0148142,35.0314951 52.561,33.758 L54.8,28.539 C55.1451559,27.7344212 55.9365118,27.2128815 56.812,27.213 C57.5551814,27.2147517 58.2467117,27.5934549 58.6484508,28.2186967 C59.0501899,28.8439386 59.107257,29.6303059 58.8,30.307 L54.881,38.929 C54.4003835,39.9858913 53.733795,40.9478381 52.913,41.769 L45.682,49 L36,49 L36,46.139 C35.9676344,43.997544 36.6632634,41.9085416 37.973,40.214 C38.7048068,39.248342 39.7015993,38.5162954 40.842,38.107 C43.0616805,37.1700017 45.1076446,35.8657503 46.894,34.249 C48.3212824,33.0582638 50.4218253,33.1554991 51.733,34.473" id="Shape" fill="#E8EDFC"/><rect id="Rectangle-path" fill="#7FACFA" x="34" y="49" width="13" height="10" rx="1"/><rect id="Rectangle-path" fill="#A4C2F7" x="34" y="49" width="10" height="10" rx="1"/><rect id="Rectangle-path" fill="#A4C2F7" x="12.999" y="49" width="13" height="10" rx="1"/><path d="M59,29.4 C59.0009441,29.7143373 58.9326608,30.0250265 58.8,30.31 L54.88,38.93 C54.3996589,39.9875432 53.7322829,40.9496488 52.91,41.77 L45.68,49 L42.68,49 L49.91,41.77 C50.7322829,40.9496488 51.3996589,39.9875432 51.88,38.93 L55.8,30.31 C55.9326608,30.0250265 56.0009441,29.7143373 56,29.4 C55.9972659,28.7979102 55.7478853,28.2232506 55.31,27.81 C55.7130471,27.4226974 56.2510331,27.2075031 56.81,27.21 C58.0172285,27.215475 58.994525,28.1927715 59,29.4 Z" id="Shape" fill="#CAD9FC"/><path d="M31.413,36.929 C22.1276082,36.1018278 15.0101722,28.3221626 15.0101722,19 C15.0101722,9.67783741 22.1276082,1.89817216 31.413,1.071 C30.945,1.035 30.477,1 30,1 C29.49,1 28.99,1.02 28.5,1.06 C19.159488,1.82456234 11.9684686,9.62824887 11.9684686,19 C11.9684686,28.3717511 19.159488,36.1754377 28.5,36.94 C28.99,36.98 29.49,37 30,37 C30.477,37 30.945,36.965 31.413,36.929 Z" id="Shape" fill="#FFFFFF"/><path d="M1.2,30.307 L5.119,38.929 C5.59961649,39.9858913 6.26620497,40.9478381 7.087,41.769 L14.316,49 L14,49 C13.4477153,49 13,49.4477153 13,50 L13,58 C13,58.5522847 13.4477153,59 14,59 L17,59 C16.4477153,59 16,58.5522847 16,58 L16,50 C16,49.4477153 16.4477153,49 17,49 L17.316,49 L10.085,41.769 C9.26420497,40.9478381 8.59761649,39.9858913 8.117,38.929 L4.2,30.307 C3.81409187,29.4621966 4.00553007,28.4656744 4.677,27.824 C3.9237488,27.0949778 2.75728846,27.0079663 1.90421334,27.6171654 C1.05113822,28.2263646 0.754888625,29.3579285 1.2,30.307 Z" id="Shape" fill="#FFFFFF"/><path d="M6.379,42.476 C5.53575183,41.6306923 4.83951804,40.6505574 4.319,39.576 L2.967,36.613 L0.288,30.721 L2.109,29.893 L4.787,35.785 L6.119,38.708 C6.54218991,39.5803108 7.10795752,40.3759004 7.793,41.062 L6.379,42.476 Z" id="Shape" fill="#FFFFFF"/><path d="M4.642,37.883 C4.15140881,38.085542 3.91575974,38.6456548 4.114,39.138 C4.65312041,40.38279 5.42146601,41.5151245 6.379,42.476 L7.793,41.062 C7.00461458,40.2712881 6.37404577,39.3376526 5.935,38.311 C5.69461685,37.8375226 5.11740858,37.646459 4.642,37.883 Z" id="Shape" fill="#428DFF"/><path d="M2.109,29.893 L0.288,30.721 L1.054,32.4 C1.29438315,32.8734774 1.87159142,33.064541 2.347,32.828 C2.83761544,32.6254864 3.07294413,32.0650737 2.874,31.573 L2.109,29.893 Z" id="Shape" fill="#428DFF"/><path d="M2.584,35.771 C2.6921799,35.9951304 2.88499613,36.1670822 3.12,36.249 L3.302,36.288 C3.36839116,36.2965713 3.43560884,36.2965713 3.502,36.288 C3.5651803,36.2893496 3.62820816,36.2812605 3.689,36.264 C3.75336562,36.2461252 3.81649916,36.2240785 3.878,36.198 C4.11480165,36.0882288 4.3045547,35.8974118 4.413,35.66 C4.45881694,35.5442143 4.4812485,35.4205009 4.479,35.296 C4.47206426,34.9181176 4.22824801,34.5854225 3.87,34.465 C3.74687268,34.4284031 3.61804882,34.4148427 3.49,34.425 C3.35989588,34.4317548 3.23212552,34.462257 3.113,34.515 C2.8761304,34.6250158 2.68613287,34.8157223 2.577,35.053 C2.48390079,35.283768 2.48641926,35.542091 2.584,35.771 Z" id="Shape" fill="#428DFF"/><path d="M24,50 L14.317,50 C14.0518052,49.9999434 13.7974927,49.8945494 13.61,49.707 L6.379,42.476 C6.00002779,42.0836211 6.00544763,41.4599152 6.39118142,41.0741814 C6.77691522,40.6884476 7.40062111,40.6830278 7.793,41.062 L14.731,48 L23,48 L23,46.139 C23.0302912,44.2250013 22.4121078,42.3570584 21.246,40.839 C20.6363375,40.0239969 19.8023175,39.4043895 18.846,39.056 C16.4961067,38.0998389 14.3358599,36.7316939 12.467,35.016 C11.4348792,34.1659088 9.92626423,34.2372739 8.979,35.181 C8.58743911,35.56089 7.9636526,35.5568335 7.57706544,35.1718833 C7.19047828,34.786933 7.18377496,34.1631693 7.562,33.77 C9.24571545,32.0961704 11.9246684,31.9728858 13.755,33.485 C15.4365476,35.0309879 17.3731733,36.2740283 19.479,37.159 C20.8036995,37.6267195 21.9626309,38.4717591 22.813,39.59 C24.2606154,41.4634055 25.0314469,43.7716704 25,46.139 L25,49 C25,49.5522847 24.5522847,50 24,50 Z" id="Shape" fill="#428DFF"/><path d="M14.317,42.738 C14.0518052,42.7379434 13.7974927,42.6325494 13.61,42.445 L9.041,37.876 C7.97010296,36.8070447 7.11429336,35.5425105 6.52,34.151 L4.283,28.934 C4.09636921,28.4961017 3.66600986,28.2122141 3.19,28.213 C2.78582049,28.2131465 2.40939441,28.4186059 2.19063714,28.7584681 C1.97187988,29.0983304 1.94075327,29.5260467 2.108,29.894 C2.26877032,30.2211197 2.23882292,30.6098043 2.02983974,30.9084353 C1.82085656,31.2070662 1.46594232,31.3683376 1.1035425,31.3293407 C0.741142688,31.2903437 0.428664536,31.0572557 0.288,30.721 C-0.171979487,29.6790349 -0.0411362855,28.4708233 0.631242236,27.5514868 C1.30362076,26.6321504 2.4153843,26.1413582 3.54774229,26.2639868 C4.68010027,26.3866155 5.66102057,27.1040349 6.121,28.146 L8.357,33.363 C8.85278717,34.5208615 9.56561173,35.5731263 10.457,36.463 L15.026,41.032 C15.3119079,41.3179943 15.3974219,41.7480366 15.242678,42.1216546 C15.0879341,42.4952725 14.7233959,42.7389137 14.319,42.739 L14.317,42.738 Z" id="Shape" fill="#428DFF"/><path d="M25,60 L14,60 C12.8954305,60 12,59.1045695 12,58 L12,50 C12,48.8954305 12.8954305,48 14,48 L25,48 C26.1045695,48 27,48.8954305 27,50 L27,58 C27,59.1045695 26.1045695,60 25,60 Z M14,50 L14,58 L25,58 L25,50 L14,50 Z" id="Shape" fill="#428DFF"/><path d="M22,55 L21,55 C20.4477153,55 20,54.5522847 20,54 C20,53.4477153 20.4477153,53 21,53 L22,53 C22.5522847,53 23,53.4477153 23,54 C23,54.5522847 22.5522847,55 22,55 Z" id="Shape" fill="#7FACFA"/><path d="M45.683,50 L36,50 C35.4477153,50 35,49.5522847 35,49 L35,46.139 C34.9694696,43.7708534 35.7417394,41.4621509 37.191,39.589 C38.0413691,38.4707591 39.2003005,37.6257195 40.525,37.158 C42.6309924,36.272772 44.5679049,35.0297647 46.25,33.484 C47.8098239,32.1931967 50.0293913,32.0714876 51.721,33.184 L53.879,28.149 C54.3389794,27.1070349 55.3198997,26.3896156 56.4522577,26.2669869 C57.5846157,26.1443582 58.6963792,26.6351505 59.3687577,27.5544869 C60.0411362,28.4738233 60.1719794,29.6820349 59.712,30.724 L55.792,39.346 C55.2625517,40.512348 54.5271174,41.5736634 53.621,42.479 L46.39,49.707 C46.2025073,49.8945494 45.9481948,49.9999434 45.683,50 Z M37,48 L45.269,48 L52.207,41.062 C52.9436643,40.3260078 53.5415655,39.4632009 53.972,38.515 L57.892,29.893 C58.0587931,29.5251433 58.0274348,29.0977685 57.8087347,28.7581971 C57.5900345,28.4186257 57.213904,28.2133006 56.81,28.213 C56.3343096,28.2123087 55.90415,28.495671 55.717,28.933 L53.48,34.151 C52.8857066,35.5425105 52.029897,36.8070447 50.959,37.876 L46.39,42.445 C45.9976211,42.8239722 45.3739152,42.8185524 44.9881814,42.4328186 C44.6024476,42.0470848 44.5970278,41.4233789 44.976,41.031 L49.545,36.462 C50.0037905,36.0038142 50.4161315,35.5013678 50.776,34.962 C49.8160886,34.2232657 48.4732202,34.2452459 47.538,35.015 C45.6686575,36.730555 43.5081096,38.0986763 41.158,39.055 C40.2016825,39.4033895 39.3676625,40.0229969 38.758,40.838 C37.5902477,42.3558052 36.9706265,44.2241854 37,46.139 L37,48 Z" id="Shape" fill="#428DFF"/><path d="M46,60 L35,60 C33.8954305,60 33,59.1045695 33,58 L33,50 C33,48.8954305 33.8954305,48 35,48 L46,48 C47.1045695,48 48,48.8954305 48,50 L48,58 C48,59.1045695 47.1045695,60 46,60 Z M35,50 L35,58 L46,58 L46,50 L35,50 Z" id="Shape" fill="#428DFF"/><path d="M39,55 L38,55 C37.4477153,55 37,54.5522847 37,54 C37,53.4477153 37.4477153,53 38,53 L39,53 C39.5522847,53 40,53.4477153 40,54 C40,54.5522847 39.5522847,55 39,55 Z" id="Shape" fill="#7FACFA"/><path d="M30,38 C19.5065898,38 11,29.4934102 11,19 C11,8.50658975 19.5065898,1.92760819e-15 30,0 C40.4934102,-1.92760819e-15 49,8.50658975 49,19 C48.9884265,29.4886126 40.4886126,37.9884265 30,38 Z M30,2 C20.6111593,2 13,9.61115925 13,19 C13,28.3888407 20.6111593,36 30,36 C39.3888407,36 47,28.3888407 47,19 C46.989529,9.61549991 39.3845001,2.01047101 30,2 Z" id="Shape" fill="#428DFF"/><path d="M30,34 C21.7157288,34 15,27.2842712 15,19 C15,10.7157288 21.7157288,4 30,4 C38.2842712,4 45,10.7157288 45,19 C44.9906315,27.2803876 38.2803876,33.9906315 30,34 Z M30,6 C22.8202983,6 17,11.8202983 17,19 C17,26.1797017 22.8202983,32 30,32 C37.1797017,32 43,26.1797017 43,19 C42.991734,11.8237249 37.1762751,6.00826602 30,6 Z" id="Shape" fill="#428DFF"/><path d="M30,6 C29.4477153,6 29,5.55228475 29,5 L29,1 C29,0.44771525 29.4477153,1.01453063e-16 30,0 C30.5522847,-1.01453063e-16 31,0.44771525 31,1 L31,5 C31,5.55228475 30.5522847,6 30,6 Z" id="Shape" fill="#428DFF"/><path d="M23,7.875 C22.6423863,7.87534843 22.3118068,7.68470282 22.133,7.375 L20.133,3.912 C19.9515156,3.60242958 19.9498167,3.21935053 20.1285481,2.90818258 C20.3072796,2.59701463 20.6390366,2.40546901 20.9978817,2.4062579 C21.3567268,2.40704678 21.6876384,2.60004922 21.865,2.912 L23.865,6.375 C24.0435415,6.68424248 24.0436393,7.0652222 23.8652566,7.37455632 C23.6868739,7.68389043 23.3570824,7.87463395 23,7.875 Z" id="Shape" fill="#428DFF"/><path d="M17.875,13 C17.6994113,13.0003718 17.5268701,12.9541308 17.375,12.866 L13.91,10.866 C13.4357864,10.5879942 13.2748714,9.97935296 13.5497255,9.5033057 C13.8245795,9.02725843 14.43214,8.86230971 14.91,9.134 L18.375,11.134 C18.7669413,11.3603139 18.9580208,11.8216562 18.8408809,12.2588223 C18.7237411,12.6959884 18.3275881,12.9999801 17.875,13 Z" id="Shape" fill="#428DFF"/><path d="M16,20 L12,20 C11.4477153,20 11,19.5522847 11,19 C11,18.4477153 11.4477153,18 12,18 L16,18 C16.5522847,18 17,18.4477153 17,19 C17,19.5522847 16.5522847,20 16,20 Z" id="Shape" fill="#428DFF"/><path d="M14.412,29 C13.9594119,28.9999801 13.5632589,28.6959884 13.4461191,28.2588223 C13.3289792,27.8216562 13.5200587,27.3603139 13.912,27.134 L17.377,25.134 C17.6865704,24.9525156 18.0696495,24.9508167 18.3808174,25.1295481 C18.6919854,25.3082796 18.883531,25.6400366 18.8827421,25.9988817 C18.8819532,26.3577268 18.6889508,26.6886384 18.377,26.866 L14.912,28.866 C14.7601299,28.9541308 14.5875887,29.0003718 14.412,29 Z" id="Shape" fill="#428DFF"/><path d="M21,35.588 C20.6429176,35.587634 20.3131261,35.3968904 20.1347434,35.0875563 C19.9563607,34.7782222 19.9564585,34.3972425 20.135,34.088 L22.135,30.625 C22.3123616,30.3130492 22.6432732,30.1200468 23.0021183,30.1192579 C23.3609634,30.118469 23.6927204,30.3100146 23.8714519,30.6211826 C24.0501833,30.9323505 24.0484844,31.3154296 23.867,31.625 L21.867,35.088 C21.6881932,35.3977028 21.3576137,35.5883484 21,35.588 Z" id="Shape" fill="#428DFF"/><path d="M30,38 C29.4477153,38 29,37.5522847 29,37 L29,33 C29,32.4477153 29.4477153,32 30,32 C30.5522847,32 31,32.4477153 31,33 L31,37 C31,37.5522847 30.5522847,38 30,38 Z" id="Shape" fill="#428DFF"/><path d="M39,35.588 C38.6423863,35.5883484 38.3118068,35.3977028 38.133,35.088 L36.133,31.625 C35.9515156,31.3154296 35.9498167,30.9323505 36.1285481,30.6211826 C36.3072796,30.3100146 36.6390366,30.118469 36.9978817,30.1192579 C37.3567268,30.1200468 37.6876384,30.3130492 37.865,30.625 L39.865,34.088 C40.0435415,34.3972425 40.0436393,34.7782222 39.8652566,35.0875563 C39.6868739,35.3968904 39.3570824,35.587634 39,35.588 Z" id="Shape" fill="#428DFF"/><path d="M45.588,29 C45.4124113,29.0003718 45.2398701,28.9541308 45.088,28.866 L41.623,26.866 C41.1487864,26.5879942 40.9878714,25.979353 41.2627255,25.5033057 C41.5375795,25.0272584 42.14514,24.8623097 42.623,25.134 L46.088,27.134 C46.4799413,27.3603139 46.6710208,27.8216562 46.5538809,28.2588223 C46.4367411,28.6959884 46.0405881,28.9999801 45.588,29 Z" id="Shape" fill="#428DFF"/><path d="M48,20 L44,20 C43.4477153,20 43,19.5522847 43,19 C43,18.4477153 43.4477153,18 44,18 L48,18 C48.5522847,18 49,18.4477153 49,19 C49,19.5522847 48.5522847,20 48,20 Z" id="Shape" fill="#428DFF"/><path d="M42.125,13 C41.6724119,12.9999801 41.2762589,12.6959884 41.1591191,12.2588223 C41.0419792,11.8216562 41.2330587,11.3603139 41.625,11.134 L45.09,9.134 C45.56786,8.86230971 46.1754205,9.02725843 46.4502745,9.5033057 C46.7251286,9.97935296 46.5642136,10.5879942 46.09,10.866 L42.625,12.866 C42.4731299,12.9541308 42.3005887,13.0003718 42.125,13 Z" id="Shape" fill="#428DFF"/><path d="M37,7.875 C36.6429176,7.87463395 36.3131261,7.68389043 36.1347434,7.37455632 C35.9563607,7.0652222 35.9564585,6.68424248 36.135,6.375 L38.135,2.912 C38.3123616,2.60004922 38.6432732,2.40704678 39.0021183,2.4062579 C39.3609634,2.40546901 39.6927204,2.59701463 39.8714519,2.90818258 C40.0501833,3.21935053 40.0484844,3.60242958 39.867,3.912 L37.867,7.375 C37.6881932,7.68470282 37.3576137,7.87534843 37,7.875 Z" id="Shape" fill="#428DFF"/><path d="M31.5,27 L25,27 C24.4477153,27 24,26.5522847 24,26 C24,25.4477153 24.4477153,25 25,25 L31.5,25 C32.8807119,25 34,23.8807119 34,22.5 C34,21.1192881 32.8807119,20 31.5,20 L28.5,20 C26.0147186,20 24,17.9852814 24,15.5 C24,13.0147186 26.0147186,11 28.5,11 L35,11 C35.5522847,11 36,11.4477153 36,12 C36,12.5522847 35.5522847,13 35,13 L28.5,13 C27.1192881,13 26,14.1192881 26,15.5 C26,16.8807119 27.1192881,18 28.5,18 L31.5,18 C33.9852814,18 36,20.0147186 36,22.5 C36,24.9852814 33.9852814,27 31.5,27 Z" id="Shape" fill="#A4C2F7"/><path d="M30,30 C29.4477153,30 29,29.5522847 29,29 L29,9 C29,8.44771525 29.4477153,8 30,8 C30.5522847,8 31,8.44771525 31,9 L31,29 C31,29.5522847 30.5522847,30 30,30 Z" id="Shape" fill="#A4C2F7"/></g></g></svg>
