<svg height="496pt" viewBox="0 0 496.00002 496" width="496pt" xmlns="http://www.w3.org/2000/svg"><g fill="#57a4ff"><path d="m176 32c-50.320312 0-91.601562 46.71875-95.679688 96h191.359376c-4.078126-49.28125-45.359376-96-95.679688-96zm0 72c-13.253906 0-24-10.746094-24-24s10.746094-24 24-24 24 10.746094 24 24-10.746094 24-24 24zm0 0"/><path d="m288 160v-32h-224v32zm0 0"/><path d="m248 488v-146l-32-6-40 56-40-56-32 6v146zm0 0"/><path d="m56 351.199219c-28.257812 7.261719-48.011719 32.742187-48 61.921875v74.878906h48zm0 0"/><path d="m344 488v-74.878906c.011719-29.179688-19.742188-54.660156-48-61.921875v136.800781zm0 0"/><path d="m192 8h-32v24h32zm0 0"/><path d="m216 336h-80l40 56zm0 0"/><path d="m384 144c-57.4375 0-104 46.5625-104 104s46.5625 104 104 104 104-46.5625 104-104-46.5625-104-104-104zm-32 104h64c8.835938 0 16 7.164062 16 16v16c0 8.835938-7.164062 16-16 16h-32 32c8.835938 0 16-7.164062 16-16v-16c0-8.835938-7.164062-16-16-16h-64c-8.835938 0-16-7.164062-16-16v-16c0-8.835938 7.164062-16 16-16h32-32c-8.835938 0-16 7.164062-16 16v16c0 8.835938 7.164062 16 16 16zm0 0"/></g><path d="m176 48c-17.671875 0-32 14.328125-32 32s14.328125 32 32 32 32-14.328125 32-32-14.328125-32-32-32zm0 48c-8.835938 0-16-7.164062-16-16s7.164062-16 16-16 16 7.164062 16 16-7.164062 16-16 16zm0 0" fill="#004fac"/><path d="m298.246094 343.519531c-1.652344-.488281-74.246094-14.160156-74.246094-14.160156v-25.054687c24.5-12.058594 40.011719-36.996094 40-64.304688v-72h24c4.417969 0 8-3.582031 8-8v-32c0-4.417969-3.582031-8-8-8h-9.3125c-6.519531-43.277344-37.011719-79.113281-78.6875-92.472656v-19.527344c0-4.417969-3.582031-8-8-8h-32c-4.417969 0-8 3.582031-8 8v19.527344c-41.675781 13.359375-72.167969 49.195312-78.6875 92.472656h-9.3125c-4.417969 0-8 3.582031-8 8v32c0 4.417969 3.582031 8 8 8h24v72c-.011719 27.304688 15.503906 52.238281 40 64.296875v25.0625s-72.59375 13.671875-73.992188 14.089844c-31.800781 8.164062-54.0312495 36.835937-54.007812 69.671875v74.878906c0 4.417969 3.582031 8 8 8h336c4.417969 0 8-3.582031 8-8v-74.878906c.050781-32.746094-22.058594-61.375-53.753906-69.601563zm-138.246094-31.519531h32c5.019531-.011719 10.027344-.546875 14.9375-1.601562.351562-.054688.710938-.101563 1.0625-.183594v17.785156h-64v-17.800781c.34375.082031.695312.128906 1.046875.183593 4.914063 1.058594 9.925781 1.601563 14.953125 1.617188zm40.457031 32-24.457031 34.230469-24.457031-34.230469zm-32.457031-320v-8h16v8zm8 16c44.839844 0 79.257812 39.886719 86.558594 80h-173.117188c7.300782-40.113281 41.757813-80 86.558594-80zm-104 96h208v16h-208zm32 104v-72h144v72c.054688 22.828125-13.789062 43.390625-34.960938 51.929688-6.691406 2.679687-13.832031 4.0625-21.039062 4.070312h-32c-7.191406-.003906-14.316406-1.378906-20.992188-4.046875-21.191406-8.53125-35.058593-29.105469-35.007812-51.953125zm-88 173.121094c.03125-21.574219 12.488281-41.195313 32-50.402344v117.28125h-32zm48-55.449219 32-6.023437v128.351562h-32zm48-9.03125 20.457031-3.839844 37.03125 51.847657c1.5 2.105468 3.925781 3.351562 6.511719 3.351562s5.011719-1.246094 6.511719-3.351562l37.03125-51.847657 20.457031 3.839844v131.359375h-128zm144 131.359375v-128.351562l32 6.023437v122.328125zm80 0h-32v-117.351562c19.53125 9.21875 31.992188 28.875 32 50.472656zm0 0" fill="#004fac"/><path d="m384 136c-61.855469 0-112 50.144531-112 112s50.144531 112 112 112 112-50.144531 112-112c-.066406-61.828125-50.171875-111.933594-112-112zm0 208c-53.019531 0-96-42.980469-96-96s42.980469-96 96-96 96 42.980469 96 96c-.058594 52.996094-43.003906 95.941406-96 96zm0 0" fill="#004fac"/><path d="m352 208h80c4.417969 0 8-3.582031 8-8s-3.582031-8-8-8h-40v-8c0-4.417969-3.582031-8-8-8s-8 3.582031-8 8v8h-24c-13.253906 0-24 10.746094-24 24v16c0 13.253906 10.746094 24 24 24h64c4.417969 0 8 3.582031 8 8v16c0 4.417969-3.582031 8-8 8h-80c-4.417969 0-8 3.582031-8 8s3.582031 8 8 8h40v8c0 4.417969 3.582031 8 8 8s8-3.582031 8-8v-8h24c13.253906 0 24-10.746094 24-24v-16c0-13.253906-10.746094-24-24-24h-64c-4.417969 0-8-3.582031-8-8v-16c0-4.417969 3.582031-8 8-8zm0 0" fill="#004fac"/></svg>