<?xml version="1.0"?>
<svg xmlns="http://www.w3.org/2000/svg" id="Layer_1" data-name="Layer 1" viewBox="0 0 128 128" width="512" height="512"><title>SETTING_1</title><path d="M90.79,75.71l6.647-6.647L93.175,64.8a21.573,21.573,0,0,0,2.876-6.964h6.036v-9.4H96.051a21.572,21.572,0,0,0-2.876-6.963l4.262-4.262L90.79,30.563l-4.262,4.262a21.572,21.572,0,0,0-6.963-2.876V25.913h-9.4v6.036A21.573,21.573,0,0,0,63.2,34.825l-4.262-4.262L52.29,37.21l4.262,4.262a21.569,21.569,0,0,0-2.876,6.963H47.64v9.4h6.036A21.569,21.569,0,0,0,56.552,64.8L52.29,69.063l6.647,6.647L63.2,71.448a21.569,21.569,0,0,0,6.963,2.876V80.36h9.4V74.324a21.569,21.569,0,0,0,6.963-2.876Z" style="fill:#fff"/><path d="M71.219,64.478,52.651,83.046a13.873,13.873,0,0,1-18.077,18.03l9.032-9.032-7.65-7.65-9.032,9.032a13.873,13.873,0,0,1,18.03-18.077L63.522,56.781a12.093,12.093,0,0,1,16.025-15l-7.88,7.88,6.674,6.674,7.88-7.88a12.093,12.093,0,0,1-15,16.025Z" style="fill:#9feeff"/><path d="M102.087,47.186H97.033a22.775,22.775,0,0,0-2.28-5.522l3.568-3.569a1.25,1.25,0,0,0,0-1.768l-6.647-6.648a1.249,1.249,0,0,0-1.767,0l-3.569,3.568a22.761,22.761,0,0,0-5.523-2.28V25.913a1.25,1.25,0,0,0-1.25-1.25h-9.4a1.25,1.25,0,0,0-1.25,1.25v5.054a22.748,22.748,0,0,0-5.523,2.28l-3.568-3.568a1.25,1.25,0,0,0-1.768,0l-6.647,6.648a1.25,1.25,0,0,0,0,1.768l3.568,3.569a22.728,22.728,0,0,0-2.281,5.522H47.64a1.25,1.25,0,0,0-1.25,1.25v9.4a1.25,1.25,0,0,0,1.25,1.25h6.036a1.25,1.25,0,0,0,0-2.5H48.89v-6.9h4.786a1.25,1.25,0,0,0,1.221-.98,20.288,20.288,0,0,1,2.71-6.56,1.25,1.25,0,0,0-.17-1.557L54.058,37.21l4.88-4.88,3.378,3.379a1.25,1.25,0,0,0,1.557.17,20.261,20.261,0,0,1,6.56-2.71,1.25,1.25,0,0,0,.98-1.221V27.163h6.9v4.785a1.25,1.25,0,0,0,.98,1.221,20.27,20.27,0,0,1,6.56,2.71,1.25,1.25,0,0,0,1.557-.17L90.79,32.33l4.88,4.88-3.378,3.379a1.249,1.249,0,0,0-.17,1.556,20.3,20.3,0,0,1,2.709,6.561,1.249,1.249,0,0,0,1.221.98h4.786v6.9H96.051a1.251,1.251,0,0,0-1.221.98,20.288,20.288,0,0,1-2.709,6.562,1.249,1.249,0,0,0,.17,1.556l3.378,3.378-4.88,4.88-3.379-3.378a1.252,1.252,0,0,0-1.556-.17A20.28,20.28,0,0,1,79.294,73.1a1.25,1.25,0,0,0-.98,1.221V79.11h-6.9V74.324a1.25,1.25,0,1,0-2.5,0V80.36a1.25,1.25,0,0,0,1.25,1.25h9.4a1.25,1.25,0,0,0,1.25-1.25V75.306a22.741,22.741,0,0,0,5.523-2.28l3.569,3.568a1.25,1.25,0,0,0,1.767,0l6.647-6.648a1.25,1.25,0,0,0,0-1.768L94.753,64.61a22.743,22.743,0,0,0,2.28-5.523h5.054a1.25,1.25,0,0,0,1.25-1.25v-9.4A1.25,1.25,0,0,0,102.087,47.186Z" style="fill:#2266ac"/><path d="M71.578,65.888a13.343,13.343,0,0,0,15.8-17.9,1.25,1.25,0,0,0-2.042-.415l-7,7-4.907-4.907,7-7a1.25,1.25,0,0,0-.415-2.043,13.343,13.343,0,0,0-17.9,15.8L48.476,70.06a1.25,1.25,0,1,0,1.768,1.767L64.406,57.664a1.25,1.25,0,0,0,.3-1.274A10.843,10.843,0,0,1,77.192,42.365l-6.409,6.409a1.25,1.25,0,0,0,0,1.768l6.674,6.675a1.287,1.287,0,0,0,1.768,0l6.409-6.409A10.843,10.843,0,0,1,71.61,63.29a1.251,1.251,0,0,0-1.274.3L51.768,82.162a1.25,1.25,0,0,0-.276,1.35,12.623,12.623,0,0,1-14.582,17l7.581-7.582a1.249,1.249,0,0,0,0-1.767l-7.65-7.65a1.249,1.249,0,0,0-1.767,0L27.49,91.092a12.623,12.623,0,0,1,17-14.583,1.25,1.25,0,1,0,.932-2.32A15.123,15.123,0,0,0,25.765,93.895a1.25,1.25,0,0,0,2.042.415l8.149-8.148,5.882,5.883-8.148,8.149a1.25,1.25,0,0,0,.415,2.043,15.123,15.123,0,0,0,20-18.872Z" style="fill:#2266ac"/></svg>
