<svg height="496pt" viewBox="0 -29 496.03645 496" width="496pt" xmlns="http://www.w3.org/2000/svg"><path d="m332.898438 26.578125-21.28125 21.28125c-7.515626-4.089844-15.421876-7.410156-23.597657-9.921875v-29.917969h-80v29.917969c-8.179687 2.511719-16.085937 5.832031-23.601562 9.921875l-21.28125-21.28125-56.558594 56.558594 21.28125 21.28125c-4.089844 7.515625-7.410156 15.421875-9.921875 23.601562h-29.917969v80h29.917969c2.511719 8.175781 5.832031 16.082031 9.921875 23.597657l-21.28125 21.28125 56.558594 56.558593 21.28125-21.277343c7.515625 4.085937 15.421875 7.410156 23.601562 9.917968v29.921875h80v-29.921875c8.175781-2.507812 16.082031-5.832031 23.597657-9.917968l21.28125 21.277343 56.558593-56.558593-21.277343-21.28125c4.085937-7.515626 7.410156-15.421876 9.917968-23.597657h29.921875v-80h-29.921875c-2.507812-8.179687-5.832031-16.085937-9.917968-23.601562l21.277343-21.28125zm-180.878907 53.441406-8 8zm-8 168 16 16zm104 0c-44.183593 0-80-35.820312-80-80 0-44.183593 35.816407-80 80-80 44.179688 0 80 35.816407 80 80 0 44.179688-35.820312 80-80 80zm80-184 20 20zm16 200 8-8zm40-112" fill="#57a4ff"/><path d="m248.019531 88.019531c-44.183593 0-80 35.816407-80 80 0 44.179688 35.816407 80 80 80 44.179688 0 80-35.820312 80-80 0-44.183593-35.820312-80-80-80zm0 136c-30.929687 0-56-25.074219-56-56 0-30.929687 25.070313-56 56-56 30.925781 0 56 25.070313 56 56 0 30.925781-25.074219 56-56 56zm0 0" fill="#57a4ff"/><g fill="#004fac"><path d="m488.019531 392.019531h-35.265625l-7.398437-12 7.398437-12h35.265625c2.730469-.015625 5.269531-1.421875 6.726563-3.730469 1.457031-2.3125 1.636718-5.207031.472656-7.679687-10.226562-20.34375-30.671875-33.550781-53.421875-34.507813-22.75-.953124-44.230469 10.496094-56.121094 29.917969h-275.3125c-11.316406-18.765625-31.691406-30.167969-53.601562-30-23.773438-.226562-45.558594 13.234375-56 34.589844-1.167969 2.480469-.984375 5.386719.488281 7.703125 1.472656 2.3125 4.027344 3.710938 6.769531 3.707031h35.261719l7.394531 12-7.394531 12h-35.261719c-2.734375.011719-5.269531 1.417969-6.730469 3.730469-1.457031 2.308594-1.636718 5.203125-.472656 7.675781 10.441406 21.359375 32.230469 34.816407 56 34.59375 21.914063.164063 42.285156-11.238281 53.601563-30h275.257812c11.882813 19.445313 33.378907 30.917969 56.148438 29.964844 22.773437-.953125 43.234375-14.183594 53.449219-34.558594 1.167968-2.480469.984374-5.386719-.488282-7.699219-1.46875-2.316406-4.023437-3.714843-6.765625-3.707031zm-48.800781 30c-17.582031.230469-33.734375-9.652343-41.527344-25.410156-1.316406-2.789063-4.117187-4.578125-7.203125-4.589844h-284.941406c-3.085937.011719-5.886719 1.800781-7.199219 4.589844-7.796875 15.757813-23.949218 25.640625-41.53125 25.410156-12.648437.074219-24.789062-4.976562-33.652344-14h24.589844c2.777344-.003906 5.351563-1.445312 6.808594-3.808593l12.320312-20c1.59375-2.570313 1.59375-5.816407 0-8.382813l-12.320312-20c-1.457031-2.367187-4.03125-3.808594-6.808594-3.808594h-24.589844c8.847657-9.015625 20.96875-14.0625 33.597657-14 17.582031-.234375 33.734375 9.648438 41.527343 25.40625 1.316407 2.792969 4.117188 4.578125 7.199219 4.59375h285c3.085938-.015625 5.886719-1.800781 7.203125-4.59375 7.792969-15.757812 23.945313-25.640625 41.527344-25.40625 12.628906-.0625 24.75 4.984375 33.597656 14h-24.535156c-2.773438 0-5.351562 1.4375-6.808594 3.796875l-12.328125 20c-1.585937 2.578125-1.585937 5.828125 0 8.402344l12.328125 20c1.457032 2.359375 4.035156 3.800781 6.808594 3.800781h24.59375c-8.863281 9.023438-21.007812 14.074219-33.65625 14zm0 0"/><path d="m88.019531 216.019531h24.160157c1.691406 4.800781 3.65625 9.5 5.886718 14.078125l-17.144531 17.121094c-3.121094 3.125-3.121094 8.1875 0 11.3125l56.558594 56.558594c3.175781 3 8.140625 3 11.3125 0l17.144531-17.144532c4.578125 2.234376 9.28125 4.207032 14.082031 5.914063v24.160156c0 4.417969 3.582031 8 8 8h80c4.417969 0 8-3.582031 8-8v-24.160156c4.796875-1.699219 9.5-3.664063 14.078125-5.890625l17.121094 17.144531c3.171875 3 8.136719 3 11.3125 0l56.558594-56.558593c3.125-3.125 3.125-8.1875 0-11.3125l-17.121094-17.144532c2.230469-4.578125 4.195312-9.277344 5.890625-14.078125h24.160156c4.417969 0 8-3.582031 8-8v-80c0-4.417969-3.582031-8-8-8h-24.160156c-1.691406-4.804687-3.660156-9.503906-5.890625-14.082031l17.144531-17.121094c3.125-3.121094 3.125-8.1875 0-11.308594l-56.558593-56.5625c-3.175782-3-8.140626-3-11.3125 0l-17.144532 17.121094c-4.578125-2.226562-9.28125-4.195312-14.078125-5.894531v-24.152344c0-4.417969-3.582031-7.9999998-8-7.9999998h-80c-4.417969 0-8 3.5820308-8 7.9999998v24.152344c-4.800781 1.699219-9.5 3.667969-14.082031 5.894531l-17.121094-17.144531c-3.171875-3-8.136718-3-11.308594 0l-56.5625 56.558594c-3.121093 3.125-3.121093 8.191406 0 11.3125l17.144532 17.144531c-2.238282 4.578125-4.210938 9.277344-5.910156 14.082031h-24.160157c-4.417969 0-8 3.582031-8 8v80c0 4.417969 3.582031 8 8 8zm8-80h21.917969c3.496094.003907 6.589844-2.265625 7.640625-5.601562 2.351563-7.664063 5.464844-15.074219 9.296875-22.121094 1.707031-3.117187 1.15625-6.988281-1.359375-9.503906l-15.625-15.65625 45.246094-45.246094 15.625 15.625c2.511719 2.511719 6.378906 3.0625 9.496093 1.359375 7.0625-3.816406 14.484376-6.917969 22.160157-9.257812 3.351562-1.050782 5.621093-4.167969 5.601562-7.679688v-21.917969h64v21.917969c-.003906 3.496094 2.261719 6.589844 5.597657 7.640625 7.671874 2.355469 15.085937 5.46875 22.136718 9.296875 3.117188 1.703125 6.984375 1.152344 9.496094-1.359375l15.648438-15.625 45.246093 45.246094-15.628906 15.625c-2.515625 2.515625-3.066406 6.386719-1.351563 9.503906 3.832032 7.054687 6.945313 14.476563 9.292969 22.152344 1.050781 3.335937 4.144531 5.605469 7.640625 5.601562h21.921875v64h-21.921875c-3.496094-.003906-6.589844 2.261719-7.640625 5.597657-2.351562 7.664062-5.464843 15.078124-9.292969 22.121093-1.714843 3.117188-1.164062 6.988281 1.351563 9.503907l15.628906 15.625-45.246093 45.277343-15.625-15.621093c-2.511719-2.511719-6.378907-3.066407-9.496094-1.359376-7.058594 3.824219-14.480469 6.9375-22.160156 9.292969-3.335938 1.050781-5.601563 4.144531-5.597657 7.640625v21.921875h-64v-21.921875c.003907-3.496094-2.265625-6.589844-5.601562-7.640625-7.667969-2.355469-15.082031-5.46875-22.136719-9.292969-3.117188-1.707031-6.984375-1.152343-9.496094 1.359376l-15.648437 15.621093-45.246094-45.246093 15.625-15.625c2.515625-2.511719 3.066406-6.386719 1.359375-9.503907-3.816406-7.054687-6.917969-14.476562-9.257812-22.152343-1.046876-3.335938-4.140626-5.601563-7.640626-5.597657h-21.957031zm0 0"/><path d="m248.019531 256.019531c48.601563 0 88-39.398437 88-88 0-48.601562-39.398437-88-88-88-48.601562 0-88 39.398438-88 88 .054688 48.574219 39.421875 87.941407 88 88zm0-160c39.761719 0 72 32.234375 72 72 0 39.761719-32.238281 72-72 72-39.765625 0-72-32.238281-72-72 .042969-39.746093 32.253907-71.957031 72-72zm0 0"/><path d="m248.019531 232.019531c35.34375 0 64-28.65625 64-64 0-35.347656-28.65625-64-64-64-35.347656 0-64 28.652344-64 64 .039063 35.328125 28.667969 63.960938 64 64zm0-112c26.507813 0 48 21.488281 48 48 0 26.507813-21.492187 48-48 48-26.511719 0-48-21.492187-48-48 .023438-26.5 21.5-47.976562 48-48zm0 0"/><path d="m384.019531 192.019531c4.417969 0 8-3.582031 8-8v-32c0-4.417969-3.582031-8-8-8s-8 3.582031-8 8v32c0 4.417969 3.582031 8 8 8zm0 0"/><path d="m120.019531 152.019531c0-4.417969-3.582031-8-8-8s-8 3.582031-8 8v8c0 4.417969 3.582031 8 8 8s8-3.582031 8-8zm0 0"/><path d="m342.363281 89.675781c3.136719 3.03125 8.128907 2.988281 11.214844-.097656s3.128906-8.078125.097656-11.214844l-20-20c-3.140625-3.03125-8.128906-2.988281-11.214843.097657-3.085938 3.085937-3.128907 8.074218-.097657 11.214843zm0 0"/><path d="m248.019531 48.019531h8c4.417969 0 8-3.582031 8-8s-3.582031-8-8-8h-8c-4.417969 0-8 3.582031-8 8s3.582031 8 8 8zm0 0"/><path d="m248.019531 296.019531h-16c-4.417969 0-8 3.582031-8 8s3.582031 8 8 8h16c4.417969 0 8-3.582031 8-8s-3.582031-8-8-8zm0 0"/><path d="m144.019531 96.019531c2.121094 0 4.15625-.84375 5.65625-2.34375l8-8c3.03125-3.140625 2.988281-8.128906-.097656-11.214843-3.085937-3.085938-8.078125-3.128907-11.214844-.097657l-8 8c-2.289062 2.285157-2.972656 5.726563-1.734375 8.714844 1.238282 2.992187 4.152344 4.9375 7.390625 4.941406zm0 0"/><path d="m346.363281 250.363281-8 8c-2.082031 2.007813-2.914062 4.980469-2.183593 7.777344.734374 2.796875 2.917968 4.984375 5.714843 5.714844 2.796875.734375 5.769531-.101563 7.78125-2.179688l8-8c3.03125-3.140625 2.988281-8.128906-.097656-11.214843-3.085937-3.085938-8.078125-3.128907-11.214844-.097657zm0 0"/><path d="m154.363281 269.675781c3.136719 3.03125 8.128907 2.988281 11.214844-.097656s3.128906-8.078125.097656-11.214844l-16-16c-3.140625-3.03125-8.128906-2.988281-11.214843.097657-3.085938 3.085937-3.128907 8.074218-.097657 11.214843zm0 0"/></g></svg>