<svg height="496pt" viewBox="0 0 496.00003 496" width="496pt" xmlns="http://www.w3.org/2000/svg"><path d="m176 32c-50.320312 0-91.601562 46.71875-95.679688 96h191.359376c-4.078126-49.28125-45.359376-96-95.679688-96zm0 72c-13.253906 0-24-10.746094-24-24s10.746094-24 24-24 24 10.746094 24 24-10.746094 24-24 24zm0 0" fill="#57a4ff"/><path d="m288 160v-32h-224v32zm0 0" fill="#57a4ff"/><path d="m216 336-40 56-40-56-32 6v146h144v-146zm0 0" fill="#57a4ff"/><path d="m8 413.121094v74.878906h48v-136.800781c-28.257812 7.261719-48.011719 32.742187-48 61.921875zm0 0" fill="#57a4ff"/><path d="m320 363.199219c-7.0625-5.648438-15.242188-9.738281-24-12v136.800781h48v-74.878906c-.015625-7.1875-1.207031-14.320313-3.519531-21.121094h-20.480469zm0 0" fill="#57a4ff"/><path d="m192 8h-32v24h32zm0 0" fill="#57a4ff"/><path d="m216 336h-80l40 56zm0 0" fill="#57a4ff"/><path d="m360 104h88v32h-88zm0 0" fill="#57a4ff"/><path d="m344 192h48v48h-48zm0 0" fill="#57a4ff"/><g fill="#004fac"><path d="m176 48c-17.671875 0-32 14.328125-32 32s14.328125 32 32 32 32-14.328125 32-32-14.328125-32-32-32zm0 48c-8.835938 0-16-7.164062-16-16s7.164062-16 16-16 16 7.164062 16 16-7.164062 16-16 16zm0 0"/><path d="m488 160h-168c-4.417969 0-8 3.582031-8 8v180.6875c-4.394531-2.191406-9-3.925781-13.753906-5.167969-1.652344-.488281-74.246094-14.160156-74.246094-14.160156v-25.054687c24.5-12.058594 40.011719-36.996094 40-64.304688v-72h24c4.417969 0 8-3.582031 8-8v-32c0-4.417969-3.582031-8-8-8h-9.3125c-6.519531-43.277344-37.011719-79.113281-78.6875-92.472656v-19.527344c0-4.417969-3.582031-8-8-8h-32c-4.417969 0-8 3.582031-8 8v19.527344c-41.675781 13.359375-72.167969 49.195312-78.6875 92.472656h-9.3125c-4.417969 0-8 3.582031-8 8v32c0 4.417969 3.582031 8 8 8h24v72c-.011719 27.304688 15.503906 52.238281 40 64.296875v25.0625s-72.59375 13.671875-73.992188 14.089844l-.191406.0625h-.0625c-31.683594 8.25-53.7812498 36.871093-53.753906 69.609375v74.878906c0 4.417969 3.582031 8 8 8h336c4.417969 0 8-3.582031 8-8v-74.878906c-.015625-4.402344-.429688-8.792969-1.238281-13.121094h137.238281c4.417969 0 8-3.582031 8-8v-224c0-4.417969-3.582031-8-8-8zm-328 152h32c5.019531-.011719 10.027344-.546875 14.9375-1.601562.359375-.054688.710938-.101563 1.0625-.183594v17.785156h-64v-17.800781c.34375.082031.695312.128906 1.046875.183593 4.914063 1.058594 9.925781 1.601563 14.953125 1.617188zm40.457031 32-24.457031 34.230469-24.457031-34.230469zm-32.457031-320v-8h16v8zm8 16c44.839844 0 79.257812 39.886719 86.558594 80h-173.117188c7.300782-40.113281 41.757813-80 86.558594-80zm-104 96h208v16h-208zm32 104v-72h144v72c.054688 22.828125-13.789062 43.390625-34.960938 51.929688-6.691406 2.679687-13.832031 4.0625-21.039062 4.070312h-32c-7.191406-.003906-14.316406-1.378906-20.992188-4.046875-21.191406-8.53125-35.058593-29.105469-35.007812-51.953125zm-88 173.121094c.03125-21.574219 12.488281-41.195313 32-50.402344v117.28125h-32zm48-55.449219 32-6.023437v128.351562h-32zm48-9.03125 20.457031-3.839844 37.03125 51.847657c1.5 2.105468 3.925781 3.351562 6.511719 3.351562s5.011719-1.246094 6.511719-3.351562l37.03125-51.847657 20.457031 3.839844v131.359375h-128zm144 131.359375v-128.351562l32 6.023437v122.328125zm80-66.878906v66.878906h-32v-117.359375c2.785156 1.296875 5.460938 2.824219 8 4.558594v24.800781c0 4.417969 3.582031 8 8 8h14.457031c1.019531 4.300781 1.535157 8.703125 1.542969 13.121094zm144-29.121094h-152v-208h152zm0 0"/><path d="m318.398438 135.839844 40 8c.527343.109375 1.0625.164062 1.601562.160156h112c13.253906 0 24-10.746094 24-24s-10.746094-24-24-24h-112c-.285156.039062-.570312.09375-.847656.167969-.25 0-.480469-.0625-.71875 0l-40 8c-3.738282.746093-6.425782 4.023437-6.433594 7.832031v16c0 3.800781 2.675781 7.078125 6.398438 7.839844zm161.601562-15.839844c0 4.417969-3.582031 8-8 8h-16v-16h16c4.417969 0 8 3.582031 8 8zm-40 8h-72v-16h72zm-112-9.441406 24-4.796875v12.476562l-24-4.796875zm0 0"/><path d="m344 248h48c4.417969 0 8-3.582031 8-8v-48c0-4.417969-3.582031-8-8-8h-48c-4.417969 0-8 3.582031-8 8v48c0 4.417969 3.582031 8 8 8zm8-48h32v32h-32zm0 0"/><path d="m344 280h120c4.417969 0 8-3.582031 8-8s-3.582031-8-8-8h-120c-4.417969 0-8 3.582031-8 8s3.582031 8 8 8zm0 0"/><path d="m344 312h104c4.417969 0 8-3.582031 8-8s-3.582031-8-8-8h-104c-4.417969 0-8 3.582031-8 8s3.582031 8 8 8zm0 0"/><path d="m344 376h96c4.417969 0 8-3.582031 8-8s-3.582031-8-8-8h-96c-4.417969 0-8 3.582031-8 8s3.582031 8 8 8zm0 0"/><path d="m464 328h-16c-4.417969 0-8 3.582031-8 8s3.582031 8 8 8h16c4.417969 0 8-3.582031 8-8s-3.582031-8-8-8zm0 0"/><path d="m344 344h72c4.417969 0 8-3.582031 8-8s-3.582031-8-8-8h-72c-4.417969 0-8 3.582031-8 8s3.582031 8 8 8zm0 0"/><path d="m424 248h40c4.417969 0 8-3.582031 8-8s-3.582031-8-8-8h-40c-4.417969 0-8 3.582031-8 8s3.582031 8 8 8zm0 0"/><path d="m424 216h40c4.417969 0 8-3.582031 8-8s-3.582031-8-8-8h-40c-4.417969 0-8 3.582031-8 8s3.582031 8 8 8zm0 0"/></g></svg>